<svg width="449" height="479" viewBox="0 0 449 479" fill="none" xmlns="http://www.w3.org/2000/svg">
<path d="M80.5061 380.533C80.5061 385.655 76.4765 389.894 71.4181 389.894C66.3597 389.894 62.3301 385.744 62.3301 380.533C62.3301 375.323 66.3597 371.172 71.4181 371.172C76.3908 371.172 80.5061 375.323 80.5061 380.533Z" fill="#4285F4"/>
<path d="M428.338 268.908C428.338 274.118 424.308 278.269 419.25 278.269C414.277 278.269 410.162 274.118 410.162 268.908C410.162 263.697 414.191 259.547 419.25 259.547C424.222 259.547 428.338 263.786 428.338 268.908Z" fill="#4285F4"/>
<path d="M314.137 198.7H300.162C295.789 198.7 292.189 194.991 292.189 190.487V182.098C292.189 177.594 295.789 173.885 300.162 173.885H315.595C319.195 173.885 322.11 176.888 322.11 180.597C322.11 185.719 326.14 189.958 331.198 189.958C336.257 189.958 340.286 185.807 340.286 180.597C340.286 166.82 329.569 155.516 316.195 155.251V147.215C316.195 142.005 312.165 137.854 307.107 137.854C302.048 137.854 298.019 142.005 298.019 147.215V155.34C284.558 156.488 273.927 168.056 273.927 182.186V190.576C273.927 205.412 285.673 217.511 300.076 217.511H314.051C318.424 217.511 322.025 221.22 322.025 225.724V234.113C322.025 238.617 318.424 242.326 314.051 242.326H298.619C295.018 242.326 292.103 239.324 292.103 235.615C292.103 230.404 288.073 226.254 283.015 226.254C277.956 226.254 273.927 230.404 273.927 235.615C273.927 249.391 284.644 260.695 298.019 260.96V268.996C298.019 274.206 302.048 278.357 307.107 278.357C312.079 278.357 316.195 274.206 316.195 268.996V260.872C329.655 259.723 340.286 248.155 340.286 234.025V225.635C340.286 210.799 328.541 198.7 314.137 198.7Z" fill="#4285F4"/>
<path d="M445.999 317.214C442.227 308.471 435.454 301.759 426.794 298.315C418.135 294.871 408.79 295.136 400.302 298.933C400.216 298.933 400.216 298.933 400.13 299.021L342.944 326.221C338.4 328.429 336.428 333.904 338.486 338.673C340.544 343.354 345.945 345.385 350.575 343.265L407.675 316.154C411.705 314.388 416.163 314.211 420.193 315.889C424.308 317.567 427.566 320.746 429.281 324.897C431.081 329.047 431.167 333.639 429.538 337.878C427.909 342.117 424.822 345.473 420.793 347.239L303.677 400.491C285.244 408.881 264.239 408.439 246.148 399.166L203.28 377.265C180.389 365.52 153.811 364.902 130.319 375.587L129.804 375.852L97.9964 301.759L142.15 281.712C163.242 272.087 186.819 271.38 208.424 279.505L294.589 312.092C302.306 315.006 306.421 323.837 303.763 331.873C301.019 339.998 292.446 344.413 284.472 341.676L217.855 318.45C213.14 316.772 207.91 319.421 206.367 324.279C204.738 329.136 207.31 334.523 212.025 336.112L278.642 359.338C282.158 360.574 285.758 361.193 289.274 361.193C303.163 361.193 316.195 352.185 320.91 337.967C326.74 320.393 317.738 300.964 300.848 294.606L214.683 262.019C208.853 259.811 202.937 258.133 197.022 257.074V205.323C197.022 154.368 237.318 112.861 286.787 112.861H319.967C369.437 112.861 409.733 154.368 409.733 205.323V229.697C409.733 234.819 413.762 239.058 418.821 239.058C423.879 239.058 427.909 234.908 427.909 229.697V205.323C427.909 151.365 390.357 106.15 340.715 96.1706V67.6461L363.693 27.1996C364.979 24.9035 365.322 22.1658 364.55 19.6048C363.778 17.0438 361.978 15.0126 359.663 13.9529L331.542 0.794506C329.398 -0.176918 326.912 -0.35354 324.683 0.529572L303.763 8.30096L285.244 0.706194C283.101 -0.176918 280.7 -0.176918 278.642 0.706194L249.492 12.3633C247.006 13.3347 245.12 15.3659 244.262 17.9269C243.405 20.4879 243.576 23.3139 244.862 25.61L267.497 67.5578V95.6407C217.427 105.267 179.36 150.57 179.36 204.97V254.866C164.356 254.689 149.352 257.868 135.292 264.227L90.7945 284.45C88.2225 280.564 84.6215 277.474 80.249 275.707C74.5047 273.588 68.4174 273.764 62.9303 276.237L5.40137 302.201C2.1434 303.702 0 307.058 0 310.767V469.639C0 472.906 1.62899 475.909 4.28681 477.587C5.74432 478.47 7.3733 479 9.08803 479C10.4598 479 11.9173 478.646 13.2034 478.028L124.832 419.92C130.233 417.358 134.348 412.855 136.492 407.203C138.207 402.522 138.464 397.577 137.264 392.808L138.035 392.455C156.468 384.065 177.474 384.507 195.564 393.779L238.432 415.681C261.324 427.426 287.902 428.044 311.308 417.358L428.423 364.107C436.911 360.221 443.427 353.245 446.771 344.325C450.029 335.582 449.772 325.868 445.999 317.214ZM322.968 93.7862H285.587V74.5344H322.968V93.7862ZM265.782 25.9632L282.158 19.4282L300.591 27.0229C302.648 27.906 304.963 27.906 307.021 27.1112L327.683 19.4282L343.287 26.758L326.826 55.8124H281.815L265.782 25.9632ZM117.201 402.964C117.03 403.052 116.944 403.052 116.773 403.14L18.1761 454.449V416.564L43.7254 403.67C48.2694 401.374 50.0699 395.811 47.8407 391.13C45.6116 386.45 40.2102 384.595 35.6662 386.891L18.1761 395.722V316.86L70.2179 293.37C71.6754 292.751 72.8757 293.016 73.5616 293.281C74.1617 293.546 75.362 294.164 75.9622 295.666L78.0199 300.523L119.43 397.047C120.373 399.255 119.43 401.904 117.201 402.964Z" fill="#4285F4"/>
</svg>
