<svg width="631" height="803" viewBox="0 0 631 803" fill="none" xmlns="http://www.w3.org/2000/svg">
<path fill-rule="evenodd" clip-rule="evenodd" d="M331.961 34.1476C331.627 34.136 331.292 34.1249 330.958 34.1144C330.406 34.0971 329.972 33.6356 329.99 33.0836C330.007 32.5316 330.468 32.0981 331.02 32.1154C331.357 32.1259 331.694 32.1371 332.031 32.1489C332.368 32.1606 332.704 32.173 333.041 32.1859C333.593 32.2072 334.023 32.6718 334.002 33.2237C333.981 33.7755 333.516 34.2057 332.964 34.1845C332.63 34.1716 332.296 34.1593 331.961 34.1476ZM342.016 33.6757C342.057 33.1249 342.537 32.7116 343.088 32.7526C343.754 32.8022 344.42 32.8541 345.085 32.9084C345.635 32.9533 346.045 33.4359 346 33.9864C345.955 34.5368 345.472 34.9467 344.922 34.9017C344.262 34.8479 343.601 34.7963 342.939 34.7471C342.388 34.7061 341.975 34.2264 342.016 33.6757ZM321.963 32.9756C321.966 33.5279 321.52 33.9776 320.968 33.98C320.304 33.983 319.641 33.9883 318.979 33.996C318.427 34.0024 317.974 33.56 317.967 33.0077C317.961 32.4555 318.403 32.0026 318.956 31.9962C319.623 31.9884 320.291 31.983 320.959 31.9801C321.511 31.9776 321.961 32.4233 321.963 32.9756ZM353.99 34.7834C354.054 34.2349 354.551 33.8427 355.1 33.9075C355.765 33.9859 356.429 34.0667 357.092 34.1499C357.64 34.2186 358.029 34.7185 357.96 35.2665C357.891 35.8145 357.391 36.203 356.843 36.1344C356.185 36.0518 355.525 35.9716 354.865 35.8937C354.317 35.8289 353.925 35.3318 353.99 34.7834ZM309.942 33.2456C309.968 33.7972 309.542 34.2658 308.991 34.2921C308.327 34.3238 307.663 34.3578 307.001 34.3943C306.449 34.4246 305.978 34.0021 305.947 33.4506C305.917 32.8992 306.34 32.4276 306.891 32.3973C307.558 32.3606 308.227 32.3263 308.895 32.2944C309.447 32.268 309.915 32.6939 309.942 33.2456ZM365.9 36.4083C365.989 35.8632 366.502 35.493 367.048 35.5815C367.709 35.689 368.37 35.7987 369.03 35.9109C369.575 36.0033 369.941 36.5197 369.849 37.0642C369.756 37.6087 369.24 37.9751 368.695 37.8826C368.04 37.7713 367.384 37.6623 366.727 37.5557C366.182 37.4671 365.812 36.9535 365.9 36.4083ZM297.947 34.0359C297.997 34.5859 297.592 35.0725 297.042 35.1228C296.379 35.1834 295.717 35.2464 295.056 35.3117C294.506 35.366 294.016 34.9644 293.962 34.4148C293.908 33.8652 294.309 33.3757 294.859 33.3214C295.525 33.2556 296.192 33.1922 296.86 33.1311C297.41 33.0808 297.896 33.4859 297.947 34.0359ZM377.727 38.5502C377.839 38.0095 378.368 37.6621 378.909 37.7744C379.566 37.9107 380.222 38.0495 380.878 38.1905C381.418 38.3067 381.761 38.8386 381.645 39.3785C381.529 39.9184 380.997 40.2619 380.457 40.1457C379.806 40.0057 379.155 39.868 378.503 39.7326C377.962 39.6204 377.615 39.091 377.727 38.5502ZM286 35.3479C286.074 35.8951 285.69 36.399 285.143 36.4732C284.483 36.5628 283.824 36.6548 283.165 36.749C282.618 36.8273 282.111 36.4475 282.033 35.9008C281.955 35.3541 282.335 34.8475 282.881 34.7692C283.545 34.6742 284.209 34.5816 284.874 34.4914C285.421 34.4171 285.925 34.8006 286 35.3479ZM389.447 41.2072C389.583 40.6719 390.127 40.348 390.662 40.4839C391.313 40.649 391.963 40.8165 392.612 40.9863C393.147 41.126 393.467 41.6725 393.327 42.2068C393.187 42.7411 392.641 43.0609 392.106 42.9212C391.462 42.7527 390.817 42.5864 390.171 42.4224C389.635 42.2866 389.311 41.7425 389.447 41.2072ZM274.122 37.181C274.221 37.7245 273.86 38.2446 273.316 38.3428C272.66 38.4613 272.005 38.5822 271.35 38.7053C270.807 38.8075 270.285 38.4503 270.182 37.9076C270.08 37.3648 270.437 36.842 270.98 36.7399C271.64 36.6158 272.3 36.494 272.961 36.3746C273.504 36.2765 274.024 36.6375 274.122 37.181ZM401.039 44.3756C401.199 43.8467 401.756 43.5471 402.285 43.7063C402.929 43.9 403.571 44.096 404.212 44.2942C404.74 44.4573 405.036 45.0173 404.873 45.5449C404.709 46.0726 404.15 46.3681 403.622 46.205C402.985 46.0082 402.347 45.8137 401.709 45.6214C401.18 45.4622 400.88 44.9044 401.039 44.3756ZM262.338 39.5332C262.459 40.0718 262.122 40.6074 261.583 40.7293C260.932 40.8766 260.283 41.0262 259.634 41.1781C259.096 41.304 258.558 40.9701 258.432 40.4324C258.306 39.8946 258.64 39.3566 259.178 39.2307C259.832 39.0777 260.486 38.927 261.141 38.7787C261.68 38.6567 262.216 38.9945 262.338 39.5332ZM412.481 48.0502C412.664 47.5288 413.234 47.254 413.755 47.4363C414.39 47.6582 415.023 47.8823 415.656 48.1086C416.176 48.2947 416.446 48.8671 416.26 49.3871C416.074 49.9071 415.502 50.1777 414.982 49.9916C414.354 49.7669 413.725 49.5445 413.095 49.3242C412.574 49.1419 412.299 48.5715 412.481 48.0502ZM250.667 42.4009C250.813 42.9337 250.499 43.4835 249.966 43.629C249.322 43.8048 248.679 43.9829 248.038 44.1633C247.506 44.3127 246.954 44.0028 246.804 43.4711C246.655 42.9394 246.965 42.3872 247.497 42.2378C248.143 42.0561 248.791 41.8768 249.439 41.6997C249.972 41.5542 250.522 41.8681 250.667 42.4009ZM423.758 52.227C423.963 51.7142 424.545 51.4647 425.058 51.6698C425.68 51.9184 426.3 52.1693 426.92 52.4224C427.431 52.6312 427.677 53.2149 427.468 53.7262C427.259 54.2375 426.675 54.4827 426.164 54.2739C425.549 54.0227 424.933 53.7737 424.315 53.5268C423.802 53.3217 423.553 52.7398 423.758 52.227ZM239.127 45.7811C239.296 46.307 239.006 46.8701 238.48 47.0389C237.847 47.2421 237.215 47.4476 236.584 47.6553C236.059 47.8279 235.494 47.5426 235.321 47.018C235.149 46.4934 235.434 45.9281 235.959 45.7555C236.594 45.5463 237.231 45.3393 237.869 45.1346C238.395 44.9658 238.958 45.2553 239.127 45.7811ZM434.838 56.8949C435.066 56.3916 435.658 56.1679 436.161 56.3953C436.771 56.6709 437.38 56.9487 437.988 57.2287C438.49 57.4597 438.709 58.0537 438.478 58.5553C438.247 59.0569 437.653 59.2763 437.151 59.0452C436.548 58.7673 435.943 58.4915 435.338 58.2179C434.834 57.9905 434.611 57.3982 434.838 56.8949ZM227.748 49.6649C227.94 50.1828 227.675 50.7581 227.157 50.9499C226.534 51.1806 225.912 51.4136 225.291 51.6487C224.774 51.8442 224.197 51.584 224.001 51.0675C223.806 50.5509 224.066 49.9737 224.583 49.7782C225.208 49.5414 225.835 49.3067 226.463 49.0743C226.981 48.8825 227.556 49.147 227.748 49.6649ZM445.702 62.0443C445.951 61.5515 446.552 61.354 447.045 61.6033C447.643 61.9056 448.24 62.21 448.835 62.5166C449.326 62.7694 449.519 63.3724 449.266 63.8634C449.013 64.3544 448.41 64.5475 447.919 64.2947C447.328 63.9904 446.736 63.6881 446.143 63.388C445.65 63.1388 445.452 62.5372 445.702 62.0443ZM216.552 54.0442C216.766 54.5532 216.527 55.1396 216.018 55.3539C215.405 55.6119 214.793 55.8721 214.183 56.1344C213.675 56.3524 213.087 56.1178 212.869 55.6103C212.651 55.1029 212.886 54.5148 213.393 54.2968C214.008 54.0325 214.625 53.7704 215.242 53.5105C215.751 53.2963 216.338 53.5352 216.552 54.0442ZM456.328 67.6648C456.599 67.1834 457.208 67.0125 457.69 67.2831C458.274 67.6114 458.857 67.9418 459.439 68.2743C459.918 68.5484 460.084 69.1593 459.81 69.6388C459.536 70.1182 458.925 70.2847 458.446 70.0106C457.869 69.6805 457.29 69.3525 456.71 69.0265C456.228 68.7559 456.058 68.1463 456.328 67.6648ZM205.559 58.9099C205.796 59.4091 205.583 60.0053 205.083 60.2417C204.482 60.5264 203.882 60.8133 203.283 61.1023C202.786 61.3423 202.188 61.1336 201.948 60.6362C201.708 60.1388 201.917 59.541 202.414 59.301C203.017 59.0099 203.622 58.721 204.227 58.4341C204.727 58.1978 205.323 58.4108 205.559 58.9099ZM466.698 73.7448C466.989 73.2757 467.606 73.1315 468.075 73.4229C468.645 73.7766 469.213 74.1323 469.779 74.49C470.246 74.7848 470.386 75.4024 470.091 75.8694C469.796 76.3365 469.179 76.4761 468.712 76.1813C468.149 75.8262 467.585 75.473 467.02 75.1219C466.551 74.8305 466.407 74.214 466.698 73.7448ZM194.791 64.2519C195.048 64.7403 194.862 65.3453 194.373 65.6032C193.785 65.9141 193.198 66.227 192.612 66.542C192.125 66.8035 191.519 66.6212 191.258 66.1347C190.996 65.6483 191.178 65.0419 191.665 64.7804C192.255 64.4631 192.846 64.1479 193.439 63.8348C193.928 63.5768 194.533 63.7636 194.791 64.2519ZM476.792 80.2718C477.104 79.8158 477.726 79.6988 478.182 80.0104C478.736 80.3886 479.288 80.7689 479.839 81.151C480.292 81.4659 480.405 82.089 480.09 82.5427C479.775 82.9964 479.152 83.109 478.698 82.7941C478.152 82.4147 477.603 82.0372 477.054 81.6617C476.598 81.3501 476.481 80.7278 476.792 80.2718ZM184.266 70.0591C184.545 70.5357 184.384 71.1483 183.908 71.4273C183.333 71.7636 182.76 72.1019 182.188 72.4423C181.714 72.7248 181.1 72.569 180.818 72.0945C180.535 71.6199 180.691 71.0062 181.166 70.7237C181.742 70.3809 182.319 70.0401 182.897 69.7013C183.374 69.4223 183.987 69.5825 184.266 70.0591ZM486.592 87.2327C486.924 86.7907 487.55 86.7009 487.992 87.032C488.529 87.4341 489.064 87.838 489.598 88.2439C490.037 88.5782 490.123 89.2056 489.788 89.6452C489.454 90.0848 488.827 90.1701 488.387 89.8357C487.857 89.4328 487.326 89.0318 486.793 88.6326C486.351 88.3015 486.261 87.6747 486.592 87.2327ZM174.004 76.3196C174.303 76.7836 174.17 77.4026 173.706 77.7021C173.147 78.0631 172.589 78.4261 172.032 78.7911C171.571 79.094 170.951 78.9651 170.648 78.5033C170.345 78.0415 170.474 77.4216 170.936 77.1187C171.496 76.751 172.058 76.3854 172.621 76.0217C173.085 75.7222 173.704 75.8556 174.004 76.3196ZM496.08 94.6136C496.43 94.1864 497.061 94.1238 497.488 94.4739C498.006 94.8989 498.523 95.3258 499.039 95.7545C499.464 96.1076 499.522 96.7381 499.168 97.1627C498.815 97.5874 498.185 97.6453 497.76 97.2922C497.248 96.8666 496.735 96.4428 496.22 96.0209C495.793 95.6708 495.73 95.0407 496.08 94.6136ZM164.024 83.0208C164.344 83.4713 164.237 84.0955 163.787 84.4149C163.244 84.7999 162.702 85.1869 162.162 85.5757C161.714 85.8984 161.089 85.7966 160.766 85.3484C160.443 84.9001 160.545 84.2752 160.993 83.9525C161.538 83.5609 162.083 83.1711 162.63 82.7833C163.081 82.4639 163.705 82.5702 164.024 83.0208ZM505.239 102.4C505.607 101.988 506.239 101.953 506.651 102.321C507.151 102.769 507.649 103.217 508.145 103.668C508.554 104.039 508.584 104.672 508.213 105.081C507.842 105.49 507.21 105.52 506.801 105.149C506.308 104.701 505.813 104.256 505.317 103.812C504.906 103.444 504.871 102.811 505.239 102.4ZM154.345 90.1494C154.684 90.5856 154.605 91.2138 154.168 91.5525C153.643 91.9607 153.118 92.3708 152.596 92.7827C152.162 93.1246 151.533 93.05 151.191 92.6162C150.849 92.1824 150.924 91.5536 151.358 91.2118C151.884 90.7969 152.412 90.3838 152.942 89.9727C153.378 89.634 154.007 89.7131 154.345 90.1494ZM514.051 110.576C514.437 110.181 515.07 110.174 515.465 110.559C515.945 111.028 516.423 111.498 516.899 111.969C517.292 112.358 517.295 112.991 516.906 113.384C516.518 113.776 515.884 113.779 515.492 113.39C515.019 112.922 514.544 112.456 514.068 111.991C513.673 111.605 513.665 110.972 514.051 110.576ZM144.984 97.6916C145.342 98.1127 145.29 98.7438 144.869 99.101C144.361 99.5316 143.855 99.964 143.351 100.398C142.932 100.759 142.301 100.711 141.94 100.293C141.58 99.8742 141.627 99.2428 142.046 98.8825C142.554 98.4451 143.064 98.0096 143.575 97.5759C143.996 97.2186 144.627 97.2704 144.984 97.6916ZM522.501 119.128C522.903 118.75 523.536 118.77 523.914 119.172C524.373 119.661 524.83 120.151 525.286 120.643C525.661 121.048 525.636 121.681 525.231 122.056C524.826 122.431 524.193 122.407 523.818 122.001C523.366 121.513 522.912 121.026 522.456 120.541C522.078 120.139 522.098 119.506 522.501 119.128ZM135.959 105.633C136.334 106.038 136.31 106.671 135.904 107.046C135.416 107.498 134.929 107.952 134.444 108.408C134.042 108.786 133.409 108.766 133.031 108.363C132.653 107.961 132.673 107.328 133.075 106.95C133.564 106.491 134.054 106.034 134.546 105.578C134.951 105.203 135.584 105.228 135.959 105.633ZM530.571 128.037C530.99 127.677 531.621 127.724 531.982 128.143C532.419 128.651 532.854 129.161 533.288 129.672C533.645 130.093 533.594 130.724 533.172 131.081C532.751 131.439 532.12 131.387 531.763 130.966C531.332 130.458 530.9 129.952 530.466 129.448C530.105 129.029 530.153 128.398 530.571 128.037ZM127.287 113.958C127.679 114.346 127.682 114.98 127.293 115.372C126.825 115.845 126.358 116.32 125.894 116.796C125.508 117.191 124.875 117.199 124.479 116.813C124.084 116.427 124.077 115.794 124.462 115.399C124.931 114.919 125.401 114.441 125.872 113.965C126.261 113.572 126.894 113.569 127.287 113.958ZM538.248 137.288C538.682 136.946 539.31 137.021 539.652 137.455C540.067 137.981 540.48 138.509 540.891 139.039C541.23 139.475 541.151 140.104 540.715 140.442C540.278 140.781 539.65 140.702 539.311 140.266C538.903 139.74 538.493 139.215 538.081 138.693C537.739 138.259 537.814 137.63 538.248 137.288ZM118.984 122.651C119.392 123.022 119.423 123.654 119.052 124.063C118.604 124.556 118.159 125.051 117.715 125.547C117.347 125.958 116.714 125.993 116.303 125.625C115.891 125.257 115.856 124.625 116.224 124.213C116.671 123.713 117.12 123.215 117.571 122.719C117.942 122.31 118.575 122.28 118.984 122.651ZM545.516 146.863C545.964 146.541 546.589 146.642 546.911 147.091C547.303 147.635 547.693 148.18 548.081 148.727C548.4 149.178 548.294 149.802 547.843 150.121C547.393 150.441 546.768 150.334 546.449 149.884C546.064 149.341 545.677 148.799 545.288 148.259C544.966 147.811 545.067 147.186 545.516 146.863ZM111.066 131.696C111.49 132.049 111.548 132.679 111.195 133.104C110.77 133.616 110.346 134.129 109.924 134.644C109.574 135.071 108.944 135.134 108.517 134.784C108.089 134.434 108.027 133.803 108.377 133.376C108.802 132.858 109.229 132.341 109.657 131.825C110.011 131.4 110.641 131.342 111.066 131.696ZM552.361 156.745C552.823 156.442 553.442 156.571 553.745 157.033C554.113 157.593 554.479 158.155 554.842 158.719C555.142 159.183 555.008 159.801 554.544 160.101C554.08 160.401 553.461 160.267 553.162 159.803C552.801 159.244 552.438 158.686 552.073 158.129C551.77 157.668 551.899 157.048 552.361 156.745ZM103.548 141.076C103.988 141.41 104.073 142.037 103.739 142.477C103.336 143.007 102.935 143.538 102.536 144.071C102.204 144.513 101.578 144.603 101.136 144.272C100.694 143.94 100.604 143.314 100.935 142.872C101.337 142.335 101.741 141.8 102.147 141.266C102.481 140.827 103.109 140.741 103.548 141.076ZM558.769 166.915C559.244 166.632 559.858 166.788 560.14 167.263C560.483 167.839 560.824 168.416 561.163 168.994C561.442 169.471 561.281 170.084 560.805 170.363C560.328 170.642 559.716 170.482 559.437 170.005C559.1 169.43 558.762 168.857 558.422 168.286C558.139 167.811 558.295 167.197 558.769 166.915ZM96.4457 150.774C96.8994 151.089 97.0119 151.712 96.6971 152.166C96.3176 152.712 95.9402 153.261 95.5646 153.81C95.253 154.266 94.6308 154.383 94.1748 154.072C93.7188 153.76 93.6017 153.138 93.9133 152.682C94.2916 152.128 94.6718 151.576 95.054 151.025C95.3689 150.572 95.992 150.459 96.4457 150.774ZM564.729 177.355C565.216 177.093 565.822 177.275 566.084 177.762C566.401 178.352 566.716 178.944 567.029 179.536C567.287 180.025 567.1 180.63 566.612 180.888C566.124 181.146 565.519 180.959 565.261 180.47C564.95 179.882 564.637 179.295 564.322 178.709C564.06 178.222 564.243 177.616 564.729 177.355ZM89.7724 160.773C90.2394 161.068 90.379 161.685 90.0842 162.152C89.7291 162.715 89.376 163.279 89.0249 163.844C88.7335 164.313 88.1169 164.457 87.6478 164.166C87.1786 163.874 87.0345 163.258 87.3259 162.789C87.6796 162.219 88.0353 161.651 88.393 161.085C88.6878 160.618 89.3054 160.478 89.7724 160.773ZM570.228 188.045C570.725 187.805 571.323 188.014 571.563 188.511C571.854 189.114 572.143 189.719 572.43 190.325C572.666 190.824 572.453 191.42 571.954 191.656C571.455 191.893 570.859 191.68 570.622 191.18C570.338 190.579 570.051 189.979 569.762 189.38C569.522 188.883 569.73 188.285 570.228 188.045ZM83.5417 171.054C84.0212 171.328 84.1877 171.939 83.9135 172.418C83.5835 172.995 83.2555 173.574 82.9295 174.154C82.6589 174.636 82.0492 174.806 81.5678 174.536C81.0863 174.265 80.9154 173.656 81.186 173.174C81.5144 172.59 81.8448 172.007 82.1773 171.425C82.4514 170.946 83.0623 170.78 83.5417 171.054ZM575.254 198.966C575.761 198.748 576.349 198.983 576.567 199.49C576.831 200.106 577.094 200.722 577.353 201.339C577.568 201.848 577.329 202.435 576.82 202.649C576.311 202.863 575.724 202.624 575.51 202.115C575.252 201.502 574.992 200.89 574.73 200.28C574.512 199.772 574.746 199.184 575.254 198.966ZM77.7664 181.598C78.2574 181.851 78.4505 182.454 78.1976 182.945C77.8933 183.536 77.5911 184.128 77.291 184.721C77.0417 185.214 76.4401 185.412 75.9473 185.162C75.4544 184.913 75.257 184.312 75.5062 183.819C75.8086 183.221 76.113 182.624 76.4195 182.029C76.6724 181.538 77.2754 181.345 77.7664 181.598ZM579.797 210.098C580.313 209.903 580.89 210.163 581.086 210.68C581.323 211.305 581.557 211.932 581.79 212.56C581.981 213.078 581.717 213.653 581.199 213.845C580.681 214.037 580.106 213.772 579.914 213.254C579.683 212.631 579.45 212.009 579.215 211.388C579.02 210.871 579.28 210.294 579.797 210.098ZM72.4583 192.386C72.9599 192.617 73.1792 193.211 72.9482 193.713C72.6703 194.316 72.3945 194.921 72.1209 195.526C71.8935 196.03 71.3011 196.253 70.7978 196.026C70.2945 195.798 70.0708 195.206 70.2982 194.703C70.5739 194.093 70.8517 193.484 71.1316 192.876C71.3627 192.374 71.9566 192.155 72.4583 192.386ZM583.846 221.418C584.371 221.246 584.936 221.531 585.108 222.056C585.318 222.692 585.525 223.328 585.729 223.966C585.898 224.492 585.609 225.055 585.083 225.224C584.557 225.393 583.994 225.103 583.825 224.577C583.622 223.944 583.416 223.312 583.209 222.681C583.036 222.156 583.321 221.591 583.846 221.418ZM67.6292 203.396C68.1405 203.605 68.3857 204.189 68.1769 204.7C67.9257 205.315 67.6766 205.931 67.4297 206.549C67.2247 207.062 66.6428 207.311 66.1299 207.106C65.6171 206.901 65.3677 206.319 65.5727 205.806C65.8214 205.184 66.0723 204.564 66.3253 203.944C66.5341 203.433 67.1179 203.187 67.6292 203.396ZM587.393 232.901C587.925 232.752 588.477 233.062 588.626 233.594C588.808 234.24 588.987 234.888 589.164 235.536C589.31 236.069 588.996 236.619 588.463 236.764C587.93 236.91 587.38 236.596 587.235 236.063C587.059 235.419 586.881 234.776 586.701 234.135C586.551 233.603 586.861 233.051 587.393 232.901ZM63.2901 214.604C63.8101 214.79 64.0807 215.362 63.8946 215.882C63.6699 216.51 63.4474 217.139 63.2272 217.769C63.0449 218.29 62.4745 218.565 61.9531 218.383C61.4318 218.2 61.157 217.63 61.3393 217.109C61.5611 216.474 61.7852 215.841 62.0116 215.208C62.1977 214.688 62.7701 214.418 63.2901 214.604ZM590.432 244.529C590.969 244.403 591.507 244.737 591.633 245.275C591.786 245.929 591.937 246.583 592.085 247.238C592.207 247.777 591.869 248.313 591.331 248.435C590.792 248.556 590.257 248.219 590.135 247.68C589.987 247.029 589.838 246.38 589.686 245.731C589.56 245.193 589.894 244.655 590.432 244.529ZM59.4479 225.991C59.9755 226.155 60.2711 226.714 60.108 227.242C59.9112 227.879 59.7166 228.517 59.5243 229.155C59.3651 229.684 58.8073 229.984 58.2785 229.825C57.7497 229.665 57.45 229.108 57.6092 228.579C57.8029 227.935 57.9989 227.293 58.1972 226.652C58.3603 226.124 58.9202 225.828 59.4479 225.991ZM592.956 256.28C593.499 256.177 594.022 256.535 594.124 257.077C594.248 257.737 594.37 258.397 594.489 259.058C594.587 259.601 594.227 260.121 593.683 260.219C593.14 260.318 592.619 259.957 592.521 259.413C592.403 258.757 592.282 258.102 592.159 257.447C592.057 256.904 592.414 256.382 592.956 256.28ZM56.1097 237.537C56.6441 237.677 56.9639 238.223 56.8241 238.758C56.6556 239.402 56.4894 240.047 56.3254 240.693C56.1895 241.229 55.6455 241.553 55.1101 241.417C54.5748 241.281 54.251 240.737 54.3868 240.202C54.552 239.551 54.7195 238.901 54.8892 238.252C55.029 237.717 55.5754 237.397 56.1097 237.537ZM594.963 268.13C595.51 268.052 596.017 268.432 596.095 268.978C596.19 269.642 596.282 270.306 596.373 270.971C596.447 271.519 596.063 272.022 595.516 272.097C594.969 272.171 594.465 271.787 594.391 271.24C594.301 270.58 594.209 269.921 594.115 269.262C594.037 268.715 594.416 268.209 594.963 268.13ZM53.2814 249.219C53.8214 249.335 54.1649 249.867 54.0487 250.407C53.9087 251.058 53.771 251.709 53.6356 252.361C53.5233 252.902 52.994 253.249 52.4532 253.137C51.9124 253.025 51.5651 252.496 51.6773 251.955C51.8137 251.298 51.9524 250.642 52.0934 249.986C52.2096 249.446 52.7415 249.103 53.2814 249.219ZM596.449 280.059C596.999 280.005 597.488 280.406 597.543 280.956C597.608 281.622 597.672 282.289 597.733 282.957C597.783 283.507 597.378 283.993 596.828 284.044C596.278 284.094 595.791 283.689 595.741 283.139C595.681 282.476 595.618 281.814 595.552 281.153C595.498 280.603 595.9 280.113 596.449 280.059ZM50.9671 261.015C51.5116 261.108 51.8781 261.624 51.7856 262.169C51.6743 262.824 51.5653 263.48 51.4586 264.137C51.3701 264.682 50.8564 265.052 50.3113 264.964C49.7661 264.875 49.396 264.362 49.4845 263.816C49.5919 263.155 49.7017 262.494 49.8138 261.834C49.9063 261.289 50.4227 260.923 50.9671 261.015ZM597.413 292.044C597.965 292.014 598.436 292.437 598.467 292.988C598.503 293.656 598.538 294.324 598.57 294.992C598.596 295.544 598.17 296.012 597.618 296.039C597.067 296.065 596.598 295.639 596.572 295.088C596.54 294.424 596.506 293.76 596.47 293.098C596.439 292.546 596.862 292.075 597.413 292.044ZM49.1695 272.904C49.7175 272.973 50.106 273.473 50.0373 274.021C49.9548 274.679 49.8745 275.339 49.7966 275.999C49.7319 276.547 49.2348 276.939 48.6863 276.874C48.1378 276.81 47.7457 276.313 47.8104 275.764C47.8889 275.099 47.9697 274.435 48.0528 273.772C48.1215 273.224 48.6215 272.835 49.1695 272.904ZM597.856 304.064C598.409 304.058 598.861 304.501 598.868 305.053C598.876 305.72 598.881 306.388 598.884 307.056C598.886 307.608 598.441 308.058 597.888 308.06C597.336 308.063 596.886 307.617 596.884 307.065C596.881 306.401 596.876 305.738 596.868 305.076C596.862 304.524 597.304 304.071 597.856 304.064ZM47.8893 284.864C48.4398 284.909 48.8496 285.392 48.8047 285.942C48.7508 286.602 48.6993 287.263 48.6501 287.925C48.6091 288.476 48.1294 288.889 47.5786 288.848C47.0279 288.807 46.6146 288.327 46.6556 287.776C46.7051 287.11 46.7571 286.444 46.8113 285.779C46.8562 285.229 47.3389 284.819 47.8893 284.864ZM597.78 316.087C598.332 316.104 598.766 316.565 598.749 317.117C598.738 317.454 598.727 317.791 598.715 318.128C598.704 318.456 598.692 318.784 598.679 319.112C598.658 319.664 598.193 320.094 597.641 320.073C597.09 320.052 596.659 319.587 596.681 319.035C596.693 318.71 596.705 318.384 596.716 318.058C596.725 317.819 596.733 317.579 596.741 317.34L596.75 317.055C596.767 316.503 597.228 316.069 597.78 316.087ZM47.1266 296.862C47.6785 296.883 48.1087 297.348 48.0874 297.9C48.0746 298.234 48.0623 298.568 48.0506 298.903C48.0389 299.238 48.0278 299.572 48.0174 299.906C48.0001 300.458 47.5386 300.892 46.9865 300.875C46.4345 300.857 46.0011 300.396 46.0183 299.844C46.0289 299.507 46.0401 299.17 46.0518 298.833C46.0636 298.496 46.0759 298.16 46.0889 297.823C46.1101 297.271 46.5747 296.841 47.1266 296.862ZM597.207 327.849C597.758 327.89 598.171 328.369 598.131 328.92C598.083 329.573 598.033 330.225 597.98 330.877C597.936 331.428 597.454 331.838 596.903 331.794C596.353 331.749 595.942 331.267 595.987 330.717C596.039 330.07 596.089 329.422 596.136 328.773C596.177 328.223 596.656 327.809 597.207 327.849ZM46.8786 308.925C47.4308 308.922 47.8806 309.368 47.8831 309.92C47.8861 310.588 47.8916 311.255 47.8994 311.922C47.9059 312.474 47.4635 312.927 46.9112 312.934C46.359 312.94 45.906 312.498 45.8995 311.945C45.8917 311.274 45.8862 310.602 45.8831 309.929C45.8806 309.377 46.3263 308.927 46.8786 308.925ZM596.143 339.54C596.691 339.604 597.084 340.1 597.021 340.649C596.945 341.3 596.867 341.951 596.787 342.602C596.72 343.15 596.22 343.539 595.672 343.472C595.124 343.404 594.735 342.905 594.802 342.357C594.882 341.712 594.959 341.065 595.034 340.418C595.098 339.869 595.594 339.476 596.143 339.54ZM47.1508 320.974C47.7025 320.947 48.1711 321.373 48.1975 321.925C48.2295 322.593 48.2639 323.26 48.3007 323.926C48.3311 324.478 47.9087 324.949 47.3573 324.98C46.8059 325.01 46.3342 324.588 46.3037 324.036C46.2667 323.365 46.232 322.693 46.1998 322.021C46.1734 321.469 46.5992 321 47.1508 320.974ZM594.584 351.181C595.129 351.268 595.501 351.78 595.414 352.326C595.311 352.972 595.206 353.617 595.099 354.261C595.008 354.806 594.493 355.174 593.948 355.083C593.403 354.993 593.035 354.477 593.126 353.933C593.233 353.293 593.337 352.652 593.439 352.011C593.526 351.466 594.039 351.094 594.584 351.181ZM47.9468 333.008C48.4968 332.957 48.9835 333.362 49.034 333.912C49.095 334.577 49.1584 335.241 49.2241 335.904C49.2786 336.454 48.8772 336.943 48.3277 336.998C47.7781 337.052 47.2884 336.651 47.2339 336.101C47.1677 335.433 47.1038 334.764 47.0424 334.095C46.9919 333.545 47.3968 333.058 47.9468 333.008ZM592.532 362.743C593.073 362.853 593.422 363.381 593.312 363.922C593.182 364.564 593.049 365.205 592.914 365.846C592.8 366.386 592.27 366.732 591.729 366.618C591.189 366.504 590.843 365.973 590.957 365.433C591.091 364.797 591.223 364.161 591.353 363.523C591.463 362.982 591.991 362.633 592.532 362.743ZM49.2671 344.987C49.8143 344.913 50.3183 345.296 50.3928 345.843C50.4831 346.506 50.5757 347.168 50.6706 347.829C50.7492 348.376 50.3697 348.883 49.823 348.961C49.2763 349.04 48.7695 348.66 48.691 348.114C48.5953 347.447 48.502 346.781 48.4111 346.113C48.3366 345.566 48.7198 345.062 49.2671 344.987ZM589.988 374.203C590.524 374.336 590.851 374.879 590.718 375.415C590.56 376.052 590.399 376.687 590.237 377.322C590.1 377.857 589.555 378.18 589.02 378.043C588.485 377.906 588.162 377.361 588.299 376.826C588.461 376.196 588.62 375.565 588.777 374.933C588.91 374.397 589.452 374.07 589.988 374.203ZM51.1129 356.905C51.6563 356.807 52.1767 357.167 52.2752 357.711C52.3942 358.367 52.5155 359.023 52.6392 359.678C52.7417 360.22 52.3848 360.743 51.8421 360.846C51.2994 360.948 50.7764 360.591 50.6739 360.049C50.5494 359.389 50.4271 358.729 50.3073 358.067C50.2088 357.524 50.5695 357.004 51.1129 356.905ZM586.955 385.55C587.484 385.706 587.787 386.262 587.631 386.792C587.446 387.419 587.259 388.046 587.07 388.672C586.91 389.201 586.352 389.5 585.824 389.34C585.295 389.18 584.996 388.622 585.156 388.093C585.344 387.472 585.529 386.85 585.713 386.227C585.869 385.697 586.425 385.394 586.955 385.55ZM53.4805 368.725C54.019 368.603 54.5548 368.94 54.6771 369.479C54.8251 370.13 54.9755 370.781 55.1281 371.431C55.2544 371.969 54.921 372.507 54.3833 372.633C53.8457 372.759 53.3074 372.426 53.1811 371.888C53.0274 371.234 52.8759 370.578 52.7268 369.922C52.6045 369.383 52.9419 368.848 53.4805 368.725ZM583.437 396.753C583.96 396.932 584.239 397.5 584.06 398.023C583.848 398.643 583.634 399.262 583.418 399.879C583.236 400.401 582.665 400.676 582.144 400.493C581.623 400.311 581.348 399.74 581.53 399.219C581.745 398.606 581.957 397.991 582.168 397.376C582.346 396.853 582.915 396.575 583.437 396.753ZM56.3671 380.431C56.8997 380.285 57.4499 380.599 57.5958 381.131C57.7722 381.775 57.9508 382.417 58.1317 383.059C58.2815 383.59 57.9721 384.143 57.4406 384.293C56.909 384.443 56.3566 384.133 56.2067 383.602C56.0245 382.955 55.8446 382.308 55.6669 381.66C55.521 381.127 55.8344 380.577 56.3671 380.431ZM579.443 407.793C579.957 407.994 580.212 408.574 580.011 409.089C579.772 409.699 579.532 410.309 579.289 410.917C579.084 411.43 578.503 411.68 577.99 411.476C577.477 411.271 577.227 410.69 577.431 410.177C577.672 409.573 577.911 408.967 578.148 408.361C578.349 407.847 578.928 407.593 579.443 407.793ZM59.7672 391.999C60.2929 391.83 60.8563 392.118 61.0256 392.644C61.2303 393.28 61.4372 393.914 61.6464 394.548C61.8196 395.072 61.5349 395.638 61.0104 395.811C60.486 395.984 59.9205 395.699 59.7473 395.175C59.5366 394.537 59.3281 393.897 59.1219 393.257C58.9526 392.732 59.2415 392.168 59.7672 391.999ZM574.977 418.655C575.482 418.878 575.711 419.468 575.488 419.973C575.224 420.572 574.958 421.17 574.69 421.767C574.464 422.27 573.872 422.495 573.368 422.269C572.864 422.042 572.64 421.451 572.866 420.947C573.132 420.355 573.396 419.761 573.658 419.167C573.881 418.661 574.472 418.432 574.977 418.655ZM63.6731 403.403C64.1908 403.211 64.7664 403.474 64.9587 403.992C65.1913 404.618 65.4262 405.244 65.6633 405.868C65.8594 406.384 65.5998 406.962 65.0835 407.158C64.5672 407.354 63.9897 407.094 63.7936 406.578C63.5548 405.949 63.3182 405.319 63.0839 404.689C62.8916 404.171 63.1554 403.595 63.6731 403.403ZM570.049 429.314C570.545 429.558 570.748 430.158 570.504 430.653C570.304 431.059 570.102 431.465 569.9 431.87C569.81 432.05 569.72 432.231 569.629 432.412C569.381 432.905 568.78 433.104 568.287 432.857C567.793 432.609 567.594 432.008 567.842 431.514C568.133 430.933 568.423 430.352 568.71 429.768C568.954 429.273 569.554 429.07 570.049 429.314ZM68.0788 414.628C68.5876 414.413 69.1742 414.651 69.3891 415.16C69.6488 415.774 69.9107 416.388 70.1747 417C70.3933 417.507 70.1594 418.096 69.6522 418.314C69.1451 418.533 68.5567 418.299 68.3381 417.792C68.0721 417.175 67.8083 416.557 67.5468 415.938C67.3319 415.429 67.5701 414.842 68.0788 414.628ZM564.67 439.751C565.155 440.016 565.332 440.624 565.067 441.108C564.752 441.683 564.436 442.256 564.117 442.828C563.848 443.311 563.239 443.484 562.757 443.216C562.274 442.947 562.101 442.338 562.37 441.856C562.686 441.288 563 440.718 563.313 440.148C563.578 439.663 564.186 439.486 564.67 439.751ZM72.9729 425.645C73.4717 425.408 74.0683 425.62 74.3053 426.119C74.5919 426.722 74.8807 427.324 75.1716 427.925C75.4123 428.422 75.2044 429.02 74.7074 429.261C74.2103 429.502 73.6122 429.294 73.3715 428.797C73.0785 428.191 72.7876 427.585 72.4989 426.978C72.2619 426.479 72.4741 425.882 72.9729 425.645ZM558.849 449.949C559.322 450.235 559.473 450.85 559.187 451.322C559.056 451.54 558.923 451.758 558.791 451.976C558.583 452.318 558.375 452.659 558.165 453C557.876 453.47 557.26 453.617 556.79 453.328C556.319 453.039 556.172 452.423 556.461 451.953C556.801 451.399 557.139 450.844 557.476 450.288C557.761 449.815 558.376 449.663 558.849 449.949ZM78.3461 436.438C78.8341 436.179 79.4394 436.365 79.698 436.853C80.0107 437.443 80.3254 438.031 80.6422 438.618C80.9044 439.104 80.723 439.711 80.237 439.973C79.7509 440.236 79.1443 440.054 78.8821 439.568C78.5629 438.977 78.2459 438.384 77.931 437.79C77.6723 437.302 77.8582 436.697 78.3461 436.438ZM552.597 459.89C553.057 460.195 553.183 460.816 552.877 461.276C552.515 461.821 552.151 462.365 551.785 462.908C551.476 463.366 550.854 463.487 550.396 463.178C549.938 462.869 549.818 462.247 550.127 461.79C550.49 461.251 550.851 460.711 551.211 460.169C551.517 459.709 552.137 459.584 552.597 459.89ZM84.1873 446.986C84.6634 446.706 85.2762 446.865 85.556 447.341C85.8942 447.917 86.2344 448.491 86.5766 449.063C86.8599 449.538 86.7052 450.152 86.2311 450.435C85.757 450.718 85.143 450.563 84.8597 450.089C84.515 449.512 84.1723 448.934 83.8317 448.354C83.5519 447.878 83.7111 447.265 84.1873 446.986ZM545.928 469.554C546.375 469.879 546.474 470.505 546.149 470.951C545.763 471.481 545.376 472.009 544.987 472.536C544.659 472.98 544.033 473.074 543.589 472.746C543.145 472.418 543.05 471.792 543.379 471.348C543.765 470.825 544.149 470.301 544.531 469.775C544.856 469.328 545.482 469.23 545.928 469.554ZM90.4834 457.267C90.9469 456.966 91.5661 457.099 91.8664 457.562C92.2295 458.122 92.5946 458.681 92.9616 459.239C93.2653 459.7 93.1375 460.32 92.6763 460.624C92.215 460.928 91.5948 460.8 91.2911 460.339C90.9214 459.777 90.5537 459.214 90.188 458.65C89.8876 458.186 90.0199 457.567 90.4834 457.267ZM538.854 478.927C539.287 479.27 539.359 479.899 539.015 480.332C538.608 480.844 538.199 481.356 537.788 481.865C537.441 482.295 536.811 482.363 536.381 482.016C535.951 481.67 535.884 481.04 536.231 480.61C536.639 480.104 537.045 479.596 537.449 479.087C537.793 478.655 538.422 478.583 538.854 478.927ZM97.2229 467.264C97.6728 466.944 98.2972 467.049 98.6175 467.499C99.0044 468.043 99.3933 468.585 99.7842 469.126C100.108 469.573 100.007 470.198 99.5595 470.522C99.1119 470.845 98.4867 470.745 98.1632 470.297C97.7696 469.752 97.3778 469.206 96.988 468.659C96.6678 468.209 96.7729 467.584 97.2229 467.264ZM531.388 487.99C531.806 488.352 531.851 488.984 531.489 489.401C531.061 489.896 530.63 490.389 530.198 490.881C529.834 491.296 529.202 491.337 528.787 490.972C528.372 490.607 528.331 489.976 528.696 489.561C529.125 489.073 529.552 488.583 529.978 488.091C530.339 487.674 530.971 487.629 531.388 487.99ZM104.391 476.958C104.827 476.618 105.455 476.696 105.795 477.132C106.205 477.658 106.617 478.183 107.032 478.706C107.374 479.14 107.301 479.769 106.868 480.111C106.435 480.454 105.806 480.381 105.463 479.948C105.046 479.42 104.631 478.892 104.217 478.361C103.878 477.926 103.956 477.297 104.391 476.958ZM523.545 496.729C523.946 497.108 523.965 497.741 523.586 498.143C523.137 498.619 522.686 499.094 522.233 499.567C521.851 499.966 521.218 499.98 520.819 499.598C520.42 499.216 520.406 498.583 520.788 498.184C521.237 497.715 521.685 497.243 522.131 496.77C522.51 496.369 523.143 496.35 523.545 496.729ZM111.975 486.33C112.395 485.972 113.026 486.023 113.385 486.443C113.817 486.951 114.252 487.458 114.689 487.963C115.05 488.38 115.004 489.012 114.586 489.373C114.168 489.734 113.537 489.688 113.176 489.271C112.736 488.762 112.298 488.252 111.862 487.74C111.504 487.32 111.554 486.689 111.975 486.33ZM515.338 505.128C515.723 505.523 515.715 506.156 515.319 506.542C514.85 506.999 514.379 507.454 513.907 507.907C513.509 508.29 512.876 508.277 512.493 507.879C512.111 507.48 512.124 506.847 512.522 506.465C512.991 506.014 513.458 505.563 513.924 505.109C514.32 504.724 514.953 504.732 515.338 505.128ZM119.959 495.364C120.363 494.988 120.996 495.011 121.372 495.416C121.827 495.904 122.283 496.392 122.741 496.877C123.12 497.279 123.102 497.912 122.7 498.291C122.299 498.67 121.666 498.651 121.287 498.25C120.825 497.761 120.366 497.27 119.908 496.778C119.532 496.373 119.555 495.741 119.959 495.364ZM506.783 513.171C507.151 513.583 507.116 514.215 506.704 514.583C506.46 514.801 506.216 515.019 505.971 515.237C505.558 515.603 504.926 515.566 504.559 515.153C504.193 514.74 504.23 514.108 504.643 513.741C504.886 513.526 505.129 513.309 505.371 513.093C505.782 512.724 506.415 512.76 506.783 513.171ZM128.328 504.043C128.716 503.649 129.349 503.645 129.743 504.032C130.218 504.501 130.695 504.968 131.174 505.433C131.57 505.818 131.579 506.451 131.194 506.847C130.809 507.243 130.176 507.252 129.78 506.867C129.298 506.399 128.817 505.929 128.339 505.457C127.945 505.069 127.941 504.436 128.328 504.043ZM137.067 512.349C137.438 511.939 138.07 511.907 138.48 512.277C138.727 512.501 138.975 512.724 139.224 512.947C139.635 513.316 139.67 513.948 139.301 514.359C138.932 514.77 138.3 514.805 137.889 514.436C137.774 514.333 137.659 514.23 137.545 514.127C137.409 514.005 137.274 513.883 137.139 513.761C136.729 513.391 136.697 512.759 137.067 512.349Z" fill="white"/>
<path d="M10.34 381.58V384H0.48V369.8H10.16V372.22H3.24V375.64H9.22V377.88H3.24V381.58H10.34ZM16.8969 384.2C16.0435 384.2 15.2769 384.06 14.5969 383.78C13.9169 383.487 13.3369 383.087 12.8569 382.58C12.3769 382.06 12.0035 381.473 11.7369 380.82C11.4835 380.167 11.3569 379.48 11.3569 378.76C11.3569 377.773 11.5769 376.873 12.0169 376.06C12.4702 375.233 13.1102 374.573 13.9369 374.08C14.7635 373.587 15.7435 373.34 16.8769 373.34C18.0102 373.34 18.9835 373.587 19.7969 374.08C20.6102 374.573 21.2169 375.22 21.6169 376.02L18.9969 376.82C18.7702 376.433 18.4702 376.14 18.0969 375.94C17.7235 375.727 17.3102 375.62 16.8569 375.62C16.3502 375.62 15.8835 375.753 15.4569 376.02C15.0435 376.273 14.7169 376.64 14.4769 377.12C14.2369 377.587 14.1169 378.133 14.1169 378.76C14.1169 379.373 14.2369 379.92 14.4769 380.4C14.7302 380.867 15.0635 381.24 15.4769 381.52C15.8902 381.787 16.3502 381.92 16.8569 381.92C17.1769 381.92 17.4769 381.867 17.7569 381.76C18.0502 381.653 18.3102 381.507 18.5369 381.32C18.7635 381.133 18.9302 380.92 19.0369 380.68L21.6569 381.48C21.4169 382 21.0635 382.467 20.5969 382.88C20.1435 383.293 19.6035 383.62 18.9769 383.86C18.3635 384.087 17.6702 384.2 16.8969 384.2ZM28.0483 384.2C27.1949 384.2 26.4283 384.06 25.7483 383.78C25.0683 383.487 24.4883 383.087 24.0083 382.58C23.5416 382.073 23.1816 381.493 22.9283 380.84C22.6749 380.187 22.5483 379.5 22.5483 378.78C22.5483 378.047 22.6749 377.353 22.9283 376.7C23.1816 376.047 23.5416 375.467 24.0083 374.96C24.4883 374.453 25.0683 374.06 25.7483 373.78C26.4283 373.487 27.1949 373.34 28.0483 373.34C28.9016 373.34 29.6616 373.487 30.3283 373.78C31.0083 374.06 31.5883 374.453 32.0683 374.96C32.5483 375.467 32.9083 376.047 33.1483 376.7C33.4016 377.353 33.5283 378.047 33.5283 378.78C33.5283 379.5 33.4016 380.187 33.1483 380.84C32.9083 381.493 32.5483 382.073 32.0683 382.58C31.6016 383.087 31.0283 383.487 30.3483 383.78C29.6683 384.06 28.9016 384.2 28.0483 384.2ZM25.3083 378.78C25.3083 379.393 25.4283 379.94 25.6683 380.42C25.9083 380.887 26.2349 381.253 26.6483 381.52C27.0616 381.787 27.5283 381.92 28.0483 381.92C28.5549 381.92 29.0149 381.787 29.4283 381.52C29.8416 381.24 30.1683 380.867 30.4083 380.4C30.6616 379.92 30.7883 379.373 30.7883 378.76C30.7883 378.16 30.6616 377.62 30.4083 377.14C30.1683 376.66 29.8416 376.287 29.4283 376.02C29.0149 375.753 28.5549 375.62 28.0483 375.62C27.5283 375.62 27.0616 375.76 26.6483 376.04C26.2349 376.307 25.9083 376.68 25.6683 377.16C25.4283 377.627 25.3083 378.167 25.3083 378.78ZM45.0772 384H42.3972V378.12C42.3972 377.28 42.2505 376.667 41.9572 376.28C41.6639 375.893 41.2572 375.7 40.7372 375.7C40.3772 375.7 40.0105 375.793 39.6372 375.98C39.2772 376.167 38.9505 376.427 38.6572 376.76C38.3639 377.08 38.1505 377.453 38.0172 377.88V384H35.3372V373.52H37.7572V375.46C38.0239 375.007 38.3639 374.627 38.7772 374.32C39.1905 374 39.6639 373.76 40.1972 373.6C40.7439 373.427 41.3172 373.34 41.9172 373.34C42.5705 373.34 43.1039 373.46 43.5172 373.7C43.9439 373.927 44.2639 374.24 44.4772 374.64C44.7039 375.027 44.8572 375.467 44.9372 375.96C45.0305 376.453 45.0772 376.953 45.0772 377.46V384ZM52.2475 384.2C51.3942 384.2 50.6275 384.06 49.9475 383.78C49.2675 383.487 48.6875 383.087 48.2075 382.58C47.7408 382.073 47.3808 381.493 47.1275 380.84C46.8742 380.187 46.7475 379.5 46.7475 378.78C46.7475 378.047 46.8742 377.353 47.1275 376.7C47.3808 376.047 47.7408 375.467 48.2075 374.96C48.6875 374.453 49.2675 374.06 49.9475 373.78C50.6275 373.487 51.3942 373.34 52.2475 373.34C53.1008 373.34 53.8608 373.487 54.5275 373.78C55.2075 374.06 55.7875 374.453 56.2675 374.96C56.7475 375.467 57.1075 376.047 57.3475 376.7C57.6008 377.353 57.7275 378.047 57.7275 378.78C57.7275 379.5 57.6008 380.187 57.3475 380.84C57.1075 381.493 56.7475 382.073 56.2675 382.58C55.8008 383.087 55.2275 383.487 54.5475 383.78C53.8675 384.06 53.1008 384.2 52.2475 384.2ZM49.5075 378.78C49.5075 379.393 49.6275 379.94 49.8675 380.42C50.1075 380.887 50.4342 381.253 50.8475 381.52C51.2608 381.787 51.7275 381.92 52.2475 381.92C52.7542 381.92 53.2142 381.787 53.6275 381.52C54.0408 381.24 54.3675 380.867 54.6075 380.4C54.8608 379.92 54.9875 379.373 54.9875 378.76C54.9875 378.16 54.8608 377.62 54.6075 377.14C54.3675 376.66 54.0408 376.287 53.6275 376.02C53.2142 375.753 52.7542 375.62 52.2475 375.62C51.7275 375.62 51.2608 375.76 50.8475 376.04C50.4342 376.307 50.1075 376.68 49.8675 377.16C49.6275 377.627 49.5075 378.167 49.5075 378.78ZM53.1275 372.3L51.4075 371.78L52.4875 369.4H54.9875L53.1275 372.3ZM75.8164 384H73.1364V378.12C73.1364 377.293 72.9897 376.687 72.6964 376.3C72.4164 375.9 72.0231 375.7 71.5164 375.7C70.9964 375.7 70.4964 375.907 70.0164 376.32C69.5497 376.72 69.2164 377.247 69.0164 377.9V384H66.3364V378.12C66.3364 377.28 66.1897 376.667 65.8964 376.28C65.6164 375.893 65.2231 375.7 64.7164 375.7C64.1964 375.7 63.6964 375.9 63.2164 376.3C62.7497 376.7 62.4164 377.227 62.2164 377.88V384H59.5364V373.52H61.9564V375.46C62.3564 374.78 62.8897 374.26 63.5564 373.9C64.2231 373.527 64.9897 373.34 65.8564 373.34C66.7231 373.34 67.3964 373.553 67.8764 373.98C68.3697 374.407 68.6831 374.933 68.8164 375.56C69.2431 374.84 69.7831 374.293 70.4364 373.92C71.1031 373.533 71.8497 373.34 72.6764 373.34C73.3297 373.34 73.8564 373.46 74.2564 373.7C74.6697 373.927 74.9897 374.24 75.2164 374.64C75.4431 375.027 75.5964 375.467 75.6764 375.96C75.7697 376.453 75.8164 376.953 75.8164 377.46V384ZM78.1497 384V373.52H80.8297V384H78.1497ZM78.1497 372.06V369.4H80.8297V372.06H78.1497ZM88.1273 384.2C87.274 384.2 86.5073 384.06 85.8273 383.78C85.1473 383.487 84.5673 383.087 84.0873 382.58C83.6073 382.06 83.234 381.473 82.9673 380.82C82.714 380.167 82.5873 379.48 82.5873 378.76C82.5873 377.773 82.8073 376.873 83.2473 376.06C83.7007 375.233 84.3407 374.573 85.1673 374.08C85.994 373.587 86.974 373.34 88.1073 373.34C89.2407 373.34 90.214 373.587 91.0273 374.08C91.8407 374.573 92.4473 375.22 92.8473 376.02L90.2273 376.82C90.0007 376.433 89.7007 376.14 89.3273 375.94C88.954 375.727 88.5407 375.62 88.0873 375.62C87.5807 375.62 87.114 375.753 86.6873 376.02C86.274 376.273 85.9473 376.64 85.7073 377.12C85.4673 377.587 85.3473 378.133 85.3473 378.76C85.3473 379.373 85.4673 379.92 85.7073 380.4C85.9607 380.867 86.294 381.24 86.7073 381.52C87.1207 381.787 87.5807 381.92 88.0873 381.92C88.4073 381.92 88.7073 381.867 88.9873 381.76C89.2807 381.653 89.5407 381.507 89.7673 381.32C89.994 381.133 90.1607 380.92 90.2673 380.68L92.8873 381.48C92.6473 382 92.294 382.467 91.8273 382.88C91.374 383.293 90.834 383.62 90.2073 383.86C89.594 384.087 88.9007 384.2 88.1273 384.2ZM99.2788 384.2C98.4254 384.2 97.6588 384.06 96.9788 383.78C96.2988 383.487 95.7188 383.087 95.2388 382.58C94.7721 382.073 94.4121 381.493 94.1588 380.84C93.9054 380.187 93.7788 379.5 93.7788 378.78C93.7788 378.047 93.9054 377.353 94.1588 376.7C94.4121 376.047 94.7721 375.467 95.2388 374.96C95.7188 374.453 96.2988 374.06 96.9788 373.78C97.6588 373.487 98.4254 373.34 99.2788 373.34C100.132 373.34 100.892 373.487 101.559 373.78C102.239 374.06 102.819 374.453 103.299 374.96C103.779 375.467 104.139 376.047 104.379 376.7C104.632 377.353 104.759 378.047 104.759 378.78C104.759 379.5 104.632 380.187 104.379 380.84C104.139 381.493 103.779 382.073 103.299 382.58C102.832 383.087 102.259 383.487 101.579 383.78C100.899 384.06 100.132 384.2 99.2788 384.2ZM96.5388 378.78C96.5388 379.393 96.6588 379.94 96.8988 380.42C97.1388 380.887 97.4654 381.253 97.8788 381.52C98.2921 381.787 98.7588 381.92 99.2788 381.92C99.7854 381.92 100.245 381.787 100.659 381.52C101.072 381.24 101.399 380.867 101.639 380.4C101.892 379.92 102.019 379.373 102.019 378.76C102.019 378.16 101.892 377.62 101.639 377.14C101.399 376.66 101.072 376.287 100.659 376.02C100.245 375.753 99.7854 375.62 99.2788 375.62C98.7588 375.62 98.2921 375.76 97.8788 376.04C97.4654 376.307 97.1388 376.68 96.8988 377.16C96.6588 377.627 96.5388 378.167 96.5388 378.78Z" fill="white"/>
<path d="M515.1 182.22H510.56V194H507.82V182.22H503.28V179.8H515.1V182.22ZM521.847 185.84C521.033 185.84 520.307 186 519.667 186.32C519.027 186.627 518.567 187.073 518.287 187.66V194H515.607V183.52H518.067V185.76C518.44 185.04 518.913 184.473 519.487 184.06C520.06 183.647 520.667 183.42 521.307 183.38C521.453 183.38 521.567 183.38 521.647 183.38C521.727 183.38 521.793 183.387 521.847 183.4V185.84ZM522.563 190.9C522.563 190.22 522.749 189.627 523.123 189.12C523.509 188.6 524.043 188.2 524.723 187.92C525.403 187.64 526.183 187.5 527.062 187.5C527.503 187.5 527.949 187.533 528.403 187.6C528.856 187.667 529.249 187.773 529.583 187.92V187.36C529.583 186.693 529.383 186.18 528.983 185.82C528.596 185.46 528.016 185.28 527.243 185.28C526.669 185.28 526.123 185.38 525.603 185.58C525.083 185.78 524.536 186.073 523.963 186.46L523.103 184.7C523.796 184.247 524.503 183.907 525.223 183.68C525.956 183.453 526.723 183.34 527.523 183.34C529.016 183.34 530.176 183.713 531.003 184.46C531.843 185.207 532.263 186.273 532.263 187.66V191C532.263 191.28 532.309 191.48 532.403 191.6C532.509 191.72 532.676 191.793 532.903 191.82V194C532.663 194.04 532.443 194.073 532.243 194.1C532.056 194.127 531.896 194.14 531.763 194.14C531.229 194.14 530.823 194.02 530.543 193.78C530.276 193.54 530.109 193.247 530.043 192.9L529.983 192.36C529.529 192.947 528.963 193.4 528.283 193.72C527.603 194.04 526.909 194.2 526.203 194.2C525.509 194.2 524.883 194.06 524.323 193.78C523.776 193.487 523.343 193.093 523.023 192.6C522.716 192.093 522.563 191.527 522.563 190.9ZM529.083 191.44C529.229 191.28 529.349 191.12 529.443 190.96C529.536 190.8 529.583 190.653 529.583 190.52V189.46C529.263 189.327 528.916 189.227 528.543 189.16C528.169 189.08 527.816 189.04 527.483 189.04C526.789 189.04 526.216 189.193 525.763 189.5C525.323 189.793 525.103 190.187 525.103 190.68C525.103 190.947 525.176 191.2 525.323 191.44C525.469 191.68 525.683 191.873 525.963 192.02C526.243 192.167 526.576 192.24 526.963 192.24C527.363 192.24 527.756 192.167 528.143 192.02C528.529 191.86 528.843 191.667 529.083 191.44ZM544.507 194H541.827V188.12C541.827 187.28 541.68 186.667 541.387 186.28C541.094 185.893 540.687 185.7 540.167 185.7C539.807 185.7 539.44 185.793 539.067 185.98C538.707 186.167 538.38 186.427 538.087 186.76C537.794 187.08 537.58 187.453 537.447 187.88V194H534.767V183.52H537.187V185.46C537.454 185.007 537.794 184.627 538.207 184.32C538.62 184 539.094 183.76 539.627 183.6C540.174 183.427 540.747 183.34 541.347 183.34C542 183.34 542.534 183.46 542.947 183.7C543.374 183.927 543.694 184.24 543.907 184.64C544.134 185.027 544.287 185.467 544.367 185.96C544.46 186.453 544.507 186.953 544.507 187.46V194ZM550.697 194.2C549.804 194.2 548.951 194.053 548.137 193.76C547.324 193.467 546.624 193.033 546.037 192.46L546.997 190.72C547.624 191.227 548.237 191.6 548.837 191.84C549.451 192.08 550.037 192.2 550.597 192.2C551.117 192.2 551.531 192.107 551.837 191.92C552.157 191.733 552.317 191.453 552.317 191.08C552.317 190.827 552.231 190.633 552.057 190.5C551.884 190.353 551.631 190.227 551.297 190.12C550.977 190.013 550.584 189.893 550.117 189.76C549.344 189.507 548.697 189.26 548.177 189.02C547.657 188.78 547.264 188.48 546.997 188.12C546.744 187.747 546.617 187.273 546.617 186.7C546.617 186.007 546.791 185.413 547.137 184.92C547.497 184.413 547.991 184.02 548.617 183.74C549.257 183.46 550.004 183.32 550.857 183.32C551.604 183.32 552.311 183.44 552.977 183.68C553.644 183.907 554.251 184.28 554.797 184.8L553.717 186.5C553.184 186.087 552.677 185.787 552.197 185.6C551.717 185.4 551.231 185.3 550.737 185.3C550.457 185.3 550.191 185.333 549.937 185.4C549.697 185.467 549.497 185.58 549.337 185.74C549.191 185.887 549.117 186.1 549.117 186.38C549.117 186.633 549.184 186.833 549.317 186.98C549.464 187.113 549.677 187.233 549.957 187.34C550.251 187.447 550.604 187.567 551.017 187.7C551.857 187.94 552.564 188.187 553.137 188.44C553.724 188.693 554.164 189.007 554.457 189.38C554.751 189.74 554.897 190.24 554.897 190.88C554.897 191.92 554.517 192.733 553.757 193.32C552.997 193.907 551.977 194.2 550.697 194.2ZM563 194.2C562.187 194.2 561.467 194.02 560.84 193.66C560.227 193.287 559.747 192.787 559.4 192.16V198.26H556.72V183.52H559.06V185.32C559.46 184.707 559.967 184.227 560.58 183.88C561.193 183.52 561.893 183.34 562.68 183.34C563.387 183.34 564.033 183.48 564.62 183.76C565.22 184.04 565.74 184.433 566.18 184.94C566.62 185.433 566.96 186.007 567.2 186.66C567.453 187.3 567.58 187.993 567.58 188.74C567.58 189.753 567.38 190.673 566.98 191.5C566.593 192.327 566.053 192.987 565.36 193.48C564.68 193.96 563.893 194.2 563 194.2ZM562.1 191.92C562.513 191.92 562.887 191.833 563.22 191.66C563.553 191.487 563.84 191.253 564.08 190.96C564.333 190.653 564.52 190.313 564.64 189.94C564.773 189.553 564.84 189.153 564.84 188.74C564.84 188.3 564.767 187.893 564.62 187.52C564.487 187.147 564.287 186.82 564.02 186.54C563.753 186.247 563.44 186.02 563.08 185.86C562.733 185.7 562.353 185.62 561.94 185.62C561.687 185.62 561.427 185.667 561.16 185.76C560.907 185.84 560.66 185.96 560.42 186.12C560.18 186.28 559.967 186.467 559.78 186.68C559.607 186.893 559.48 187.127 559.4 187.38V189.84C559.56 190.227 559.773 190.58 560.04 190.9C560.32 191.22 560.64 191.473 561 191.66C561.36 191.833 561.727 191.92 562.1 191.92ZM568.676 190.9C568.676 190.22 568.862 189.627 569.236 189.12C569.622 188.6 570.156 188.2 570.836 187.92C571.516 187.64 572.296 187.5 573.176 187.5C573.616 187.5 574.062 187.533 574.516 187.6C574.969 187.667 575.362 187.773 575.696 187.92V187.36C575.696 186.693 575.496 186.18 575.096 185.82C574.709 185.46 574.129 185.28 573.356 185.28C572.782 185.28 572.236 185.38 571.716 185.58C571.196 185.78 570.649 186.073 570.076 186.46L569.216 184.7C569.909 184.247 570.616 183.907 571.336 183.68C572.069 183.453 572.836 183.34 573.636 183.34C575.129 183.34 576.289 183.713 577.116 184.46C577.956 185.207 578.376 186.273 578.376 187.66V191C578.376 191.28 578.422 191.48 578.516 191.6C578.622 191.72 578.789 191.793 579.016 191.82V194C578.776 194.04 578.556 194.073 578.356 194.1C578.169 194.127 578.009 194.14 577.876 194.14C577.342 194.14 576.936 194.02 576.656 193.78C576.389 193.54 576.222 193.247 576.156 192.9L576.096 192.36C575.642 192.947 575.076 193.4 574.396 193.72C573.716 194.04 573.022 194.2 572.316 194.2C571.622 194.2 570.996 194.06 570.436 193.78C569.889 193.487 569.456 193.093 569.136 192.6C568.829 192.093 568.676 191.527 568.676 190.9ZM575.196 191.44C575.342 191.28 575.462 191.12 575.556 190.96C575.649 190.8 575.696 190.653 575.696 190.52V189.46C575.376 189.327 575.029 189.227 574.656 189.16C574.282 189.08 573.929 189.04 573.596 189.04C572.902 189.04 572.329 189.193 571.876 189.5C571.436 189.793 571.216 190.187 571.216 190.68C571.216 190.947 571.289 191.2 571.436 191.44C571.582 191.68 571.796 191.873 572.076 192.02C572.356 192.167 572.689 192.24 573.076 192.24C573.476 192.24 573.869 192.167 574.256 192.02C574.642 191.86 574.956 191.667 575.196 191.44ZM587.12 185.84C586.307 185.84 585.58 186 584.94 186.32C584.3 186.627 583.84 187.073 583.56 187.66V194H580.88V183.52H583.34V185.76C583.713 185.04 584.187 184.473 584.76 184.06C585.333 183.647 585.94 183.42 586.58 183.38C586.727 183.38 586.84 183.38 586.92 183.38C587 183.38 587.067 183.387 587.12 183.4V185.84ZM593.338 194.2C592.498 194.2 591.738 194.06 591.058 193.78C590.378 193.487 589.798 193.093 589.318 192.6C588.838 192.093 588.464 191.52 588.198 190.88C587.944 190.227 587.818 189.54 587.818 188.82C587.818 187.82 588.038 186.907 588.478 186.08C588.931 185.253 589.571 184.593 590.398 184.1C591.238 183.593 592.224 183.34 593.358 183.34C594.504 183.34 595.484 183.593 596.298 184.1C597.111 184.593 597.731 185.253 598.158 186.08C598.598 186.893 598.818 187.773 598.818 188.72C598.818 188.88 598.811 189.047 598.798 189.22C598.784 189.38 598.771 189.513 598.758 189.62H590.658C590.711 190.153 590.864 190.62 591.118 191.02C591.384 191.42 591.718 191.727 592.118 191.94C592.531 192.14 592.971 192.24 593.438 192.24C593.971 192.24 594.471 192.113 594.938 191.86C595.418 191.593 595.744 191.247 595.918 190.82L598.218 191.46C597.964 191.993 597.598 192.467 597.118 192.88C596.651 193.293 596.098 193.62 595.458 193.86C594.818 194.087 594.111 194.2 593.338 194.2ZM590.598 187.92H596.078C596.024 187.387 595.871 186.927 595.618 186.54C595.378 186.14 595.058 185.833 594.658 185.62C594.258 185.393 593.811 185.28 593.318 185.28C592.838 185.28 592.398 185.393 591.998 185.62C591.611 185.833 591.291 186.14 591.038 186.54C590.798 186.927 590.651 187.387 590.598 187.92ZM610.19 194H607.51V188.12C607.51 187.28 607.364 186.667 607.07 186.28C606.777 185.893 606.37 185.7 605.85 185.7C605.49 185.7 605.124 185.793 604.75 185.98C604.39 186.167 604.064 186.427 603.77 186.76C603.477 187.08 603.264 187.453 603.13 187.88V194H600.45V183.52H602.87V185.46C603.137 185.007 603.477 184.627 603.89 184.32C604.304 184 604.777 183.76 605.31 183.6C605.857 183.427 606.43 183.34 607.03 183.34C607.684 183.34 608.217 183.46 608.63 183.7C609.057 183.927 609.377 184.24 609.59 184.64C609.817 185.027 609.97 185.467 610.05 185.96C610.144 186.453 610.19 186.953 610.19 187.46V194ZM618.742 193.46C618.516 193.553 618.242 193.66 617.922 193.78C617.602 193.9 617.256 193.993 616.882 194.06C616.522 194.14 616.156 194.18 615.782 194.18C615.289 194.18 614.836 194.093 614.422 193.92C614.009 193.747 613.676 193.473 613.422 193.1C613.182 192.713 613.062 192.213 613.062 191.6V185.58H611.682V183.52H613.062V180.12H615.742V183.52H617.942V185.58H615.742V190.7C615.756 191.06 615.856 191.32 616.042 191.48C616.229 191.64 616.462 191.72 616.742 191.72C617.022 191.72 617.296 191.673 617.562 191.58C617.829 191.487 618.042 191.407 618.202 191.34L618.742 193.46ZM624.881 194.2C624.041 194.2 623.281 194.06 622.601 193.78C621.921 193.487 621.341 193.093 620.861 192.6C620.381 192.093 620.007 191.52 619.741 190.88C619.487 190.227 619.361 189.54 619.361 188.82C619.361 187.82 619.581 186.907 620.021 186.08C620.474 185.253 621.114 184.593 621.941 184.1C622.781 183.593 623.767 183.34 624.901 183.34C626.047 183.34 627.027 183.593 627.841 184.1C628.654 184.593 629.274 185.253 629.701 186.08C630.141 186.893 630.361 187.773 630.361 188.72C630.361 188.88 630.354 189.047 630.341 189.22C630.327 189.38 630.314 189.513 630.301 189.62H622.201C622.254 190.153 622.407 190.62 622.661 191.02C622.927 191.42 623.261 191.727 623.661 191.94C624.074 192.14 624.514 192.24 624.981 192.24C625.514 192.24 626.014 192.113 626.481 191.86C626.961 191.593 627.287 191.247 627.461 190.82L629.761 191.46C629.507 191.993 629.141 192.467 628.661 192.88C628.194 193.293 627.641 193.62 627.001 193.86C626.361 194.087 625.654 194.2 624.881 194.2ZM622.141 187.92H627.621C627.567 187.387 627.414 186.927 627.161 186.54C626.921 186.14 626.601 185.833 626.201 185.62C625.801 185.393 625.354 185.28 624.861 185.28C624.381 185.28 623.941 185.393 623.541 185.62C623.154 185.833 622.834 186.14 622.581 186.54C622.341 186.927 622.194 187.387 622.141 187.92Z" fill="white"/>
<path d="M223.94 55.52C223.847 55.4267 223.673 55.3 223.42 55.14C223.18 54.98 222.88 54.8267 222.52 54.68C222.173 54.5333 221.793 54.4067 221.38 54.3C220.967 54.18 220.547 54.12 220.12 54.12C219.373 54.12 218.807 54.26 218.42 54.54C218.047 54.82 217.86 55.2133 217.86 55.72C217.86 56.1067 217.98 56.4133 218.22 56.64C218.46 56.8667 218.82 57.06 219.3 57.22C219.78 57.38 220.38 57.5533 221.1 57.74C222.033 57.9667 222.84 58.2467 223.52 58.58C224.213 58.9 224.74 59.3267 225.1 59.86C225.473 60.38 225.66 61.0733 225.66 61.94C225.66 62.7 225.52 63.3533 225.24 63.9C224.96 64.4333 224.573 64.8667 224.08 65.2C223.587 65.5333 223.027 65.78 222.4 65.94C221.773 66.0867 221.107 66.16 220.4 66.16C219.693 66.16 218.987 66.0867 218.28 65.94C217.573 65.7933 216.893 65.5867 216.24 65.32C215.587 65.04 214.987 64.7067 214.44 64.32L215.66 61.94C215.78 62.06 215.993 62.22 216.3 62.42C216.607 62.6067 216.98 62.8 217.42 63C217.86 63.1867 218.34 63.3467 218.86 63.48C219.38 63.6133 219.907 63.68 220.44 63.68C221.187 63.68 221.753 63.5533 222.14 63.3C222.527 63.0467 222.72 62.6867 222.72 62.22C222.72 61.7933 222.567 61.46 222.26 61.22C221.953 60.98 221.527 60.7733 220.98 60.6C220.433 60.4133 219.787 60.2133 219.04 60C218.147 59.7467 217.4 59.4667 216.8 59.16C216.2 58.84 215.753 58.44 215.46 57.96C215.167 57.48 215.02 56.88 215.02 56.16C215.02 55.1867 215.247 54.3733 215.7 53.72C216.167 53.0533 216.793 52.5533 217.58 52.22C218.367 51.8733 219.24 51.7 220.2 51.7C220.867 51.7 221.493 51.7733 222.08 51.92C222.68 52.0667 223.24 52.26 223.76 52.5C224.28 52.74 224.747 53 225.16 53.28L223.94 55.52ZM232.346 66.2C231.506 66.2 230.746 66.06 230.066 65.78C229.386 65.4867 228.806 65.0933 228.326 64.6C227.846 64.0933 227.472 63.52 227.206 62.88C226.952 62.2267 226.826 61.54 226.826 60.82C226.826 59.82 227.046 58.9067 227.486 58.08C227.939 57.2533 228.579 56.5933 229.406 56.1C230.246 55.5933 231.232 55.34 232.366 55.34C233.512 55.34 234.492 55.5933 235.306 56.1C236.119 56.5933 236.739 57.2533 237.166 58.08C237.606 58.8933 237.826 59.7733 237.826 60.72C237.826 60.88 237.819 61.0467 237.806 61.22C237.792 61.38 237.779 61.5133 237.766 61.62H229.666C229.719 62.1533 229.872 62.62 230.126 63.02C230.392 63.42 230.726 63.7267 231.126 63.94C231.539 64.14 231.979 64.24 232.446 64.24C232.979 64.24 233.479 64.1133 233.946 63.86C234.426 63.5933 234.752 63.2467 234.926 62.82L237.226 63.46C236.972 63.9933 236.606 64.4667 236.126 64.88C235.659 65.2933 235.106 65.62 234.466 65.86C233.826 66.0867 233.119 66.2 232.346 66.2ZM229.606 59.92H235.086C235.032 59.3867 234.879 58.9267 234.626 58.54C234.386 58.14 234.066 57.8333 233.666 57.62C233.266 57.3933 232.819 57.28 232.326 57.28C231.846 57.28 231.406 57.3933 231.006 57.62C230.619 57.8333 230.299 58.14 230.046 58.54C229.806 58.9267 229.659 59.3867 229.606 59.92ZM243.558 66.06C242.865 66.06 242.225 65.9267 241.638 65.66C241.065 65.38 240.565 64.9933 240.138 64.5C239.725 64.0067 239.405 63.44 239.178 62.8C238.952 62.16 238.838 61.48 238.838 60.76C238.838 60 238.958 59.2933 239.198 58.64C239.438 57.9867 239.772 57.4133 240.198 56.92C240.638 56.4133 241.152 56.0267 241.738 55.76C242.338 55.48 242.998 55.34 243.718 55.34C244.532 55.34 245.245 55.5267 245.858 55.9C246.472 56.26 246.978 56.7467 247.378 57.36V55.52H249.718V65.5C249.718 66.54 249.465 67.4267 248.958 68.16C248.465 68.9067 247.778 69.4733 246.898 69.86C246.018 70.26 245.018 70.46 243.898 70.46C242.765 70.46 241.805 70.2667 241.018 69.88C240.232 69.5067 239.558 68.9733 238.998 68.28L240.458 66.86C240.858 67.3533 241.358 67.74 241.958 68.02C242.572 68.3 243.218 68.44 243.898 68.44C244.472 68.44 244.992 68.3333 245.458 68.12C245.938 67.92 246.318 67.6 246.598 67.16C246.892 66.7333 247.038 66.18 247.038 65.5V64.18C246.692 64.78 246.198 65.2467 245.558 65.58C244.932 65.9 244.265 66.06 243.558 66.06ZM244.458 63.92C244.752 63.92 245.032 63.8733 245.298 63.78C245.565 63.6867 245.812 63.56 246.038 63.4C246.265 63.24 246.465 63.0533 246.638 62.84C246.812 62.6133 246.945 62.3867 247.038 62.16V59.66C246.878 59.2467 246.652 58.8867 246.358 58.58C246.078 58.2733 245.758 58.04 245.398 57.88C245.052 57.7067 244.685 57.62 244.298 57.62C243.885 57.62 243.512 57.7067 243.178 57.88C242.845 58.0533 242.558 58.3 242.318 58.62C242.078 58.9267 241.892 59.2733 241.758 59.66C241.638 60.0333 241.578 60.4267 241.578 60.84C241.578 61.2667 241.652 61.6667 241.798 62.04C241.945 62.4133 242.145 62.74 242.398 63.02C242.665 63.3 242.972 63.52 243.318 63.68C243.678 63.84 244.058 63.92 244.458 63.92ZM252.034 62.08V55.52H254.714V61.5C254.714 62.3 254.861 62.9067 255.154 63.32C255.447 63.72 255.881 63.92 256.454 63.92C256.801 63.92 257.141 63.8533 257.474 63.72C257.821 63.5733 258.134 63.36 258.414 63.08C258.707 62.8 258.954 62.4467 259.154 62.02V55.52H261.834V63C261.834 63.28 261.881 63.48 261.974 63.6C262.081 63.72 262.247 63.7933 262.474 63.82V66C262.207 66.04 261.981 66.0667 261.794 66.08C261.621 66.1067 261.461 66.12 261.314 66.12C260.834 66.12 260.441 66.0133 260.134 65.8C259.841 65.5733 259.667 65.2667 259.614 64.88L259.554 64.04C259.087 64.7467 258.487 65.2867 257.754 65.66C257.021 66.02 256.214 66.2 255.334 66.2C254.254 66.2 253.434 65.8533 252.874 65.16C252.314 64.4533 252.034 63.4267 252.034 62.08ZM270.737 57.84C269.924 57.84 269.197 58 268.557 58.32C267.917 58.6267 267.457 59.0733 267.177 59.66V66H264.497V55.52H266.957V57.76C267.331 57.04 267.804 56.4733 268.377 56.06C268.951 55.6467 269.557 55.42 270.197 55.38C270.344 55.38 270.457 55.38 270.537 55.38C270.617 55.38 270.684 55.3867 270.737 55.4V57.84ZM276.935 66.2C276.082 66.2 275.315 66.06 274.635 65.78C273.955 65.4867 273.375 65.0867 272.895 64.58C272.428 64.0733 272.068 63.4933 271.815 62.84C271.562 62.1867 271.435 61.5 271.435 60.78C271.435 60.0467 271.562 59.3533 271.815 58.7C272.068 58.0467 272.428 57.4667 272.895 56.96C273.375 56.4533 273.955 56.06 274.635 55.78C275.315 55.4867 276.082 55.34 276.935 55.34C277.788 55.34 278.548 55.4867 279.215 55.78C279.895 56.06 280.475 56.4533 280.955 56.96C281.435 57.4667 281.795 58.0467 282.035 58.7C282.288 59.3533 282.415 60.0467 282.415 60.78C282.415 61.5 282.288 62.1867 282.035 62.84C281.795 63.4933 281.435 64.0733 280.955 64.58C280.488 65.0867 279.915 65.4867 279.235 65.78C278.555 66.06 277.788 66.2 276.935 66.2ZM274.195 60.78C274.195 61.3933 274.315 61.94 274.555 62.42C274.795 62.8867 275.122 63.2533 275.535 63.52C275.948 63.7867 276.415 63.92 276.935 63.92C277.442 63.92 277.902 63.7867 278.315 63.52C278.728 63.24 279.055 62.8667 279.295 62.4C279.548 61.92 279.675 61.3733 279.675 60.76C279.675 60.16 279.548 59.62 279.295 59.14C279.055 58.66 278.728 58.2867 278.315 58.02C277.902 57.7533 277.442 57.62 276.935 57.62C276.415 57.62 275.948 57.76 275.535 58.04C275.122 58.3067 274.795 58.68 274.555 59.16C274.315 59.6267 274.195 60.1667 274.195 60.78ZM293.889 66.2C293.049 66.2 292.289 66.06 291.609 65.78C290.929 65.4867 290.349 65.0933 289.869 64.6C289.389 64.0933 289.015 63.52 288.749 62.88C288.495 62.2267 288.369 61.54 288.369 60.82C288.369 59.82 288.589 58.9067 289.029 58.08C289.482 57.2533 290.122 56.5933 290.949 56.1C291.789 55.5933 292.775 55.34 293.909 55.34C295.055 55.34 296.035 55.5933 296.849 56.1C297.662 56.5933 298.282 57.2533 298.709 58.08C299.149 58.8933 299.369 59.7733 299.369 60.72C299.369 60.88 299.362 61.0467 299.349 61.22C299.335 61.38 299.322 61.5133 299.309 61.62H291.209C291.262 62.1533 291.415 62.62 291.669 63.02C291.935 63.42 292.269 63.7267 292.669 63.94C293.082 64.14 293.522 64.24 293.989 64.24C294.522 64.24 295.022 64.1133 295.489 63.86C295.969 63.5933 296.295 63.2467 296.469 62.82L298.769 63.46C298.515 63.9933 298.149 64.4667 297.669 64.88C297.202 65.2933 296.649 65.62 296.009 65.86C295.369 66.0867 294.662 66.2 293.889 66.2ZM291.149 59.92H296.629C296.575 59.3867 296.422 58.9267 296.169 58.54C295.929 58.14 295.609 57.8333 295.209 57.62C294.809 57.3933 294.362 57.28 293.869 57.28C293.389 57.28 292.949 57.3933 292.549 57.62C292.162 57.8333 291.842 58.14 291.589 58.54C291.349 58.9267 291.202 59.3867 291.149 59.92ZM310.741 66H308.061V60.12C308.061 59.28 307.915 58.6667 307.621 58.28C307.328 57.8933 306.921 57.7 306.401 57.7C306.041 57.7 305.675 57.7933 305.301 57.98C304.941 58.1667 304.615 58.4267 304.321 58.76C304.028 59.08 303.815 59.4533 303.681 59.88V66H301.001V55.52H303.421V57.46C303.688 57.0067 304.028 56.6267 304.441 56.32C304.855 56 305.328 55.76 305.861 55.6C306.408 55.4267 306.981 55.34 307.581 55.34C308.235 55.34 308.768 55.46 309.181 55.7C309.608 55.9267 309.928 56.24 310.141 56.64C310.368 57.0267 310.521 57.4667 310.601 57.96C310.695 58.4533 310.741 58.9533 310.741 59.46V66ZM215.2 74.4H217.88V85.64C217.88 86.12 217.96 86.4467 218.12 86.62C218.28 86.78 218.5 86.86 218.78 86.86C218.993 86.86 219.213 86.8333 219.44 86.78C219.667 86.7267 219.867 86.66 220.04 86.58L220.4 88.62C220.04 88.7933 219.62 88.9267 219.14 89.02C218.66 89.1133 218.227 89.16 217.84 89.16C217 89.16 216.347 88.94 215.88 88.5C215.427 88.0467 215.2 87.4067 215.2 86.58V74.4ZM220.848 85.9C220.848 85.22 221.034 84.6267 221.408 84.12C221.794 83.6 222.328 83.2 223.008 82.92C223.688 82.64 224.468 82.5 225.348 82.5C225.788 82.5 226.234 82.5333 226.688 82.6C227.141 82.6667 227.534 82.7733 227.868 82.92V82.36C227.868 81.6933 227.668 81.18 227.268 80.82C226.881 80.46 226.301 80.28 225.528 80.28C224.954 80.28 224.408 80.38 223.888 80.58C223.368 80.78 222.821 81.0733 222.248 81.46L221.388 79.7C222.081 79.2467 222.788 78.9067 223.508 78.68C224.241 78.4533 225.008 78.34 225.808 78.34C227.301 78.34 228.461 78.7133 229.288 79.46C230.128 80.2067 230.548 81.2733 230.548 82.66V86C230.548 86.28 230.594 86.48 230.688 86.6C230.794 86.72 230.961 86.7933 231.188 86.82V89C230.948 89.04 230.728 89.0733 230.528 89.1C230.341 89.1267 230.181 89.14 230.048 89.14C229.514 89.14 229.108 89.02 228.828 88.78C228.561 88.54 228.394 88.2467 228.328 87.9L228.268 87.36C227.814 87.9467 227.248 88.4 226.568 88.72C225.888 89.04 225.194 89.2 224.488 89.2C223.794 89.2 223.168 89.06 222.608 88.78C222.061 88.4867 221.628 88.0933 221.308 87.6C221.001 87.0933 220.848 86.5267 220.848 85.9ZM227.368 86.44C227.514 86.28 227.634 86.12 227.728 85.96C227.821 85.8 227.868 85.6533 227.868 85.52V84.46C227.548 84.3267 227.201 84.2267 226.828 84.16C226.454 84.08 226.101 84.04 225.768 84.04C225.074 84.04 224.501 84.1933 224.048 84.5C223.608 84.7933 223.388 85.1867 223.388 85.68C223.388 85.9467 223.461 86.2 223.608 86.44C223.754 86.68 223.968 86.8733 224.248 87.02C224.528 87.1667 224.861 87.24 225.248 87.24C225.648 87.24 226.041 87.1667 226.428 87.02C226.814 86.86 227.128 86.6667 227.368 86.44ZM247.597 89H244.917V83.12C244.917 82.28 244.77 81.6667 244.477 81.28C244.183 80.8933 243.777 80.7 243.257 80.7C242.897 80.7 242.53 80.7933 242.157 80.98C241.797 81.1667 241.47 81.4267 241.177 81.76C240.883 82.08 240.67 82.4533 240.537 82.88V89H237.857V78.52H240.277V80.46C240.543 80.0067 240.883 79.6267 241.297 79.32C241.71 79 242.183 78.76 242.717 78.6C243.263 78.4267 243.837 78.34 244.437 78.34C245.09 78.34 245.623 78.46 246.037 78.7C246.463 78.9267 246.783 79.24 246.997 79.64C247.223 80.0267 247.377 80.4667 247.457 80.96C247.55 81.4533 247.597 81.9533 247.597 82.46V89ZM249.827 85.08V78.52H252.507V84.5C252.507 85.3 252.654 85.9067 252.947 86.32C253.24 86.72 253.674 86.92 254.247 86.92C254.594 86.92 254.934 86.8533 255.267 86.72C255.614 86.5733 255.927 86.36 256.207 86.08C256.5 85.8 256.747 85.4467 256.947 85.02V78.52H259.627V86C259.627 86.28 259.674 86.48 259.767 86.6C259.874 86.72 260.04 86.7933 260.267 86.82V89C260 89.04 259.774 89.0667 259.587 89.08C259.414 89.1067 259.254 89.12 259.107 89.12C258.627 89.12 258.234 89.0133 257.927 88.8C257.634 88.5733 257.46 88.2667 257.407 87.88L257.347 87.04C256.88 87.7467 256.28 88.2867 255.547 88.66C254.814 89.02 254.007 89.2 253.127 89.2C252.047 89.2 251.227 88.8533 250.667 88.16C250.107 87.4533 249.827 86.4267 249.827 85.08ZM268.25 89.2C267.45 89.2 266.737 89.02 266.11 88.66C265.484 88.3 264.99 87.8067 264.63 87.18V89H262.29V74.4H264.97V80.36C265.344 79.7333 265.83 79.24 266.43 78.88C267.044 78.52 267.757 78.34 268.57 78.34C269.25 78.34 269.87 78.4867 270.43 78.78C270.99 79.06 271.47 79.4533 271.87 79.96C272.284 80.4667 272.597 81.0467 272.81 81.7C273.037 82.3533 273.15 83.0533 273.15 83.8C273.15 84.5467 273.024 85.2467 272.77 85.9C272.53 86.5533 272.19 87.1333 271.75 87.64C271.31 88.1333 270.79 88.52 270.19 88.8C269.604 89.0667 268.957 89.2 268.25 89.2ZM267.51 86.92C267.937 86.92 268.324 86.84 268.67 86.68C269.03 86.5067 269.337 86.28 269.59 86C269.857 85.72 270.057 85.3933 270.19 85.02C270.337 84.6333 270.41 84.2333 270.41 83.82C270.41 83.2467 270.29 82.72 270.05 82.24C269.824 81.7467 269.504 81.3533 269.09 81.06C268.69 80.7667 268.217 80.62 267.67 80.62C267.284 80.62 266.91 80.7133 266.55 80.9C266.204 81.0733 265.89 81.3133 265.61 81.62C265.344 81.9267 265.13 82.2733 264.97 82.66V85.16C265.05 85.4267 265.177 85.6667 265.35 85.88C265.537 86.0933 265.75 86.28 265.99 86.44C266.23 86.5867 266.477 86.7067 266.73 86.8C266.997 86.88 267.257 86.92 267.51 86.92ZM279.826 89.2C278.986 89.2 278.226 89.06 277.546 88.78C276.866 88.4867 276.286 88.0933 275.806 87.6C275.326 87.0933 274.953 86.52 274.686 85.88C274.433 85.2267 274.306 84.54 274.306 83.82C274.306 82.82 274.526 81.9067 274.966 81.08C275.419 80.2533 276.059 79.5933 276.886 79.1C277.726 78.5933 278.713 78.34 279.846 78.34C280.993 78.34 281.973 78.5933 282.786 79.1C283.599 79.5933 284.219 80.2533 284.646 81.08C285.086 81.8933 285.306 82.7733 285.306 83.72C285.306 83.88 285.299 84.0467 285.286 84.22C285.273 84.38 285.259 84.5133 285.246 84.62H277.146C277.199 85.1533 277.353 85.62 277.606 86.02C277.873 86.42 278.206 86.7267 278.606 86.94C279.019 87.14 279.459 87.24 279.926 87.24C280.459 87.24 280.959 87.1133 281.426 86.86C281.906 86.5933 282.233 86.2467 282.406 85.82L284.706 86.46C284.453 86.9933 284.086 87.4667 283.606 87.88C283.139 88.2933 282.586 88.62 281.946 88.86C281.306 89.0867 280.599 89.2 279.826 89.2ZM277.086 82.92H282.566C282.513 82.3867 282.359 81.9267 282.106 81.54C281.866 81.14 281.546 80.8333 281.146 80.62C280.746 80.3933 280.299 80.28 279.806 80.28C279.326 80.28 278.886 80.3933 278.486 80.62C278.099 80.8333 277.779 81.14 277.526 81.54C277.286 81.9267 277.139 82.3867 277.086 82.92Z" fill="white"/>
<path d="M508.34 470.8H511.14L516.36 485H513.52L512.2 481.46H507.24L505.94 485H503.1L508.34 470.8ZM511.7 479.52L509.74 473.66L507.7 479.52H511.7ZM533.938 485H531.258V479.12C531.258 478.293 531.111 477.687 530.818 477.3C530.538 476.9 530.144 476.7 529.638 476.7C529.118 476.7 528.618 476.907 528.138 477.32C527.671 477.72 527.338 478.247 527.138 478.9V485H524.458V479.12C524.458 478.28 524.311 477.667 524.018 477.28C523.738 476.893 523.344 476.7 522.838 476.7C522.318 476.7 521.818 476.9 521.338 477.3C520.871 477.7 520.538 478.227 520.338 478.88V485H517.658V474.52H520.078V476.46C520.478 475.78 521.011 475.26 521.678 474.9C522.344 474.527 523.111 474.34 523.978 474.34C524.844 474.34 525.518 474.553 525.998 474.98C526.491 475.407 526.804 475.933 526.938 476.56C527.364 475.84 527.904 475.293 528.558 474.92C529.224 474.533 529.971 474.34 530.798 474.34C531.451 474.34 531.978 474.46 532.378 474.7C532.791 474.927 533.111 475.24 533.338 475.64C533.564 476.027 533.718 476.467 533.798 476.96C533.891 477.453 533.938 477.953 533.938 478.46V485ZM536.271 485V474.52H538.951V485H536.271ZM536.271 473.06V470.4H538.951V473.06H536.271ZM545.468 485.06C544.775 485.06 544.135 484.927 543.548 484.66C542.975 484.38 542.475 483.993 542.048 483.5C541.635 483.007 541.315 482.44 541.088 481.8C540.862 481.16 540.748 480.48 540.748 479.76C540.748 479 540.868 478.293 541.108 477.64C541.348 476.987 541.682 476.413 542.108 475.92C542.548 475.413 543.062 475.027 543.648 474.76C544.248 474.48 544.908 474.34 545.628 474.34C546.442 474.34 547.155 474.527 547.768 474.9C548.382 475.26 548.888 475.747 549.288 476.36V474.52H551.628V484.5C551.628 485.54 551.375 486.427 550.868 487.16C550.375 487.907 549.688 488.473 548.808 488.86C547.928 489.26 546.928 489.46 545.808 489.46C544.675 489.46 543.715 489.267 542.928 488.88C542.142 488.507 541.468 487.973 540.908 487.28L542.368 485.86C542.768 486.353 543.268 486.74 543.868 487.02C544.482 487.3 545.128 487.44 545.808 487.44C546.382 487.44 546.902 487.333 547.368 487.12C547.848 486.92 548.228 486.6 548.508 486.16C548.802 485.733 548.948 485.18 548.948 484.5V483.18C548.602 483.78 548.108 484.247 547.468 484.58C546.842 484.9 546.175 485.06 545.468 485.06ZM546.368 482.92C546.662 482.92 546.942 482.873 547.208 482.78C547.475 482.687 547.722 482.56 547.948 482.4C548.175 482.24 548.375 482.053 548.548 481.84C548.722 481.613 548.855 481.387 548.948 481.16V478.66C548.788 478.247 548.562 477.887 548.268 477.58C547.988 477.273 547.668 477.04 547.308 476.88C546.962 476.707 546.595 476.62 546.208 476.62C545.795 476.62 545.422 476.707 545.088 476.88C544.755 477.053 544.468 477.3 544.228 477.62C543.988 477.927 543.802 478.273 543.668 478.66C543.548 479.033 543.488 479.427 543.488 479.84C543.488 480.267 543.562 480.667 543.708 481.04C543.855 481.413 544.055 481.74 544.308 482.02C544.575 482.3 544.882 482.52 545.228 482.68C545.588 482.84 545.968 482.92 546.368 482.92ZM553.324 481.9C553.324 481.22 553.511 480.627 553.884 480.12C554.271 479.6 554.804 479.2 555.484 478.92C556.164 478.64 556.944 478.5 557.824 478.5C558.264 478.5 558.711 478.533 559.164 478.6C559.618 478.667 560.011 478.773 560.344 478.92V478.36C560.344 477.693 560.144 477.18 559.744 476.82C559.358 476.46 558.778 476.28 558.004 476.28C557.431 476.28 556.884 476.38 556.364 476.58C555.844 476.78 555.298 477.073 554.724 477.46L553.864 475.7C554.558 475.247 555.264 474.907 555.984 474.68C556.718 474.453 557.484 474.34 558.284 474.34C559.778 474.34 560.938 474.713 561.764 475.46C562.604 476.207 563.024 477.273 563.024 478.66V482C563.024 482.28 563.071 482.48 563.164 482.6C563.271 482.72 563.438 482.793 563.664 482.82V485C563.424 485.04 563.204 485.073 563.004 485.1C562.818 485.127 562.658 485.14 562.524 485.14C561.991 485.14 561.584 485.02 561.304 484.78C561.038 484.54 560.871 484.247 560.804 483.9L560.744 483.36C560.291 483.947 559.724 484.4 559.044 484.72C558.364 485.04 557.671 485.2 556.964 485.2C556.271 485.2 555.644 485.06 555.084 484.78C554.538 484.487 554.104 484.093 553.784 483.6C553.478 483.093 553.324 482.527 553.324 481.9ZM559.844 482.44C559.991 482.28 560.111 482.12 560.204 481.96C560.298 481.8 560.344 481.653 560.344 481.52V480.46C560.024 480.327 559.678 480.227 559.304 480.16C558.931 480.08 558.578 480.04 558.244 480.04C557.551 480.04 556.978 480.193 556.524 480.5C556.084 480.793 555.864 481.187 555.864 481.68C555.864 481.947 555.938 482.2 556.084 482.44C556.231 482.68 556.444 482.873 556.724 483.02C557.004 483.167 557.338 483.24 557.724 483.24C558.124 483.24 558.518 483.167 558.904 483.02C559.291 482.86 559.604 482.667 559.844 482.44ZM571.489 485.2C570.689 485.2 569.975 485.02 569.349 484.66C568.722 484.3 568.229 483.807 567.869 483.18V485H565.529V470.4H568.209V476.36C568.582 475.733 569.069 475.24 569.669 474.88C570.282 474.52 570.995 474.34 571.809 474.34C572.489 474.34 573.109 474.487 573.669 474.78C574.229 475.06 574.709 475.453 575.109 475.96C575.522 476.467 575.835 477.047 576.049 477.7C576.275 478.353 576.389 479.053 576.389 479.8C576.389 480.547 576.262 481.247 576.009 481.9C575.769 482.553 575.429 483.133 574.989 483.64C574.549 484.133 574.029 484.52 573.429 484.8C572.842 485.067 572.195 485.2 571.489 485.2ZM570.749 482.92C571.175 482.92 571.562 482.84 571.909 482.68C572.269 482.507 572.575 482.28 572.829 482C573.095 481.72 573.295 481.393 573.429 481.02C573.575 480.633 573.649 480.233 573.649 479.82C573.649 479.247 573.529 478.72 573.289 478.24C573.062 477.747 572.742 477.353 572.329 477.06C571.929 476.767 571.455 476.62 570.909 476.62C570.522 476.62 570.149 476.713 569.789 476.9C569.442 477.073 569.129 477.313 568.849 477.62C568.582 477.927 568.369 478.273 568.209 478.66V481.16C568.289 481.427 568.415 481.667 568.589 481.88C568.775 482.093 568.989 482.28 569.229 482.44C569.469 482.587 569.715 482.707 569.969 482.8C570.235 482.88 570.495 482.92 570.749 482.92ZM578.184 470.4H580.864V481.64C580.864 482.12 580.944 482.447 581.104 482.62C581.264 482.78 581.484 482.86 581.764 482.86C581.978 482.86 582.198 482.833 582.424 482.78C582.651 482.727 582.851 482.66 583.024 482.58L583.384 484.62C583.024 484.793 582.604 484.927 582.124 485.02C581.644 485.113 581.211 485.16 580.824 485.16C579.984 485.16 579.331 484.94 578.864 484.5C578.411 484.047 578.184 483.407 578.184 482.58V470.4ZM589.412 485.2C588.572 485.2 587.812 485.06 587.132 484.78C586.452 484.487 585.872 484.093 585.392 483.6C584.912 483.093 584.539 482.52 584.272 481.88C584.019 481.227 583.892 480.54 583.892 479.82C583.892 478.82 584.112 477.907 584.552 477.08C585.005 476.253 585.645 475.593 586.472 475.1C587.312 474.593 588.299 474.34 589.432 474.34C590.579 474.34 591.559 474.593 592.372 475.1C593.185 475.593 593.805 476.253 594.232 477.08C594.672 477.893 594.892 478.773 594.892 479.72C594.892 479.88 594.885 480.047 594.872 480.22C594.859 480.38 594.845 480.513 594.832 480.62H586.732C586.785 481.153 586.939 481.62 587.192 482.02C587.459 482.42 587.792 482.727 588.192 482.94C588.605 483.14 589.045 483.24 589.512 483.24C590.045 483.24 590.545 483.113 591.012 482.86C591.492 482.593 591.819 482.247 591.992 481.82L594.292 482.46C594.039 482.993 593.672 483.467 593.192 483.88C592.725 484.293 592.172 484.62 591.532 484.86C590.892 485.087 590.185 485.2 589.412 485.2ZM586.672 478.92H592.152C592.099 478.387 591.945 477.927 591.692 477.54C591.452 477.14 591.132 476.833 590.732 476.62C590.332 476.393 589.885 476.28 589.392 476.28C588.912 476.28 588.472 476.393 588.072 476.62C587.685 476.833 587.365 477.14 587.112 477.54C586.872 477.927 586.725 478.387 586.672 478.92Z" fill="white"/>
<path d="M550.039 162.445C557.241 162.445 563.078 156.464 563.078 149.086C563.078 141.708 557.241 135.727 550.039 135.727C542.838 135.727 537 141.708 537 149.086C537 156.464 542.838 162.445 550.039 162.445Z" stroke="white" strokeWidth="2" strokeLinecap="round" strokeLinejoin="round"/>
<path d="M561.961 173.578C569.162 173.578 575 167.763 575 160.59C575 153.417 569.162 147.602 561.961 147.602C554.759 147.602 548.921 153.417 548.921 160.59C548.921 167.763 554.759 173.578 561.961 173.578Z" stroke="white" strokeWidth="2" strokeLinecap="round" strokeLinejoin="round"/>
<path d="M554.882 149.828L561.588 155.766" stroke="white" strokeWidth="2" strokeLinecap="round" strokeLinejoin="round"/>
<path d="M550.412 154.281L557.118 160.219" stroke="white" strokeWidth="2" strokeLinecap="round" strokeLinejoin="round"/>
<path d="M550 456.469C558.837 456.469 566 449.333 566 440.531C566 431.729 558.837 424.594 550 424.594C541.163 424.594 534 431.729 534 440.531C534 449.333 541.163 456.469 550 456.469Z" stroke="white" strokeWidth="2" strokeLinecap="round" strokeLinejoin="round"/>
<path d="M556.93 444.515C556.227 445.726 555.217 446.731 554 447.43C552.784 448.129 551.404 448.497 550 448.497C548.596 448.497 547.216 448.13 546 447.431C544.784 446.732 543.773 445.726 543.07 444.515" stroke="white" strokeWidth="2" strokeLinecap="round" strokeLinejoin="round"/>
<path d="M544 439.203C545.105 439.203 546 438.311 546 437.211C546 436.111 545.105 435.219 544 435.219C542.895 435.219 542 436.111 542 437.211C542 438.311 542.895 439.203 544 439.203Z" fill="white"/>
<path d="M556 439.203C557.105 439.203 558 438.311 558 437.211C558 436.111 557.105 435.219 556 435.219C554.895 435.219 554 436.111 554 437.211C554 438.311 554.895 439.203 556 439.203Z" fill="white"/>
<path d="M251.136 24.1641C251.136 21.4059 251.953 18.7098 253.484 16.4165C255.015 14.1232 257.191 12.3358 259.737 11.2803C262.282 10.2248 265.083 9.94863 267.786 10.4867C270.489 11.0248 272.971 12.353 274.919 14.3032C276.868 16.2535 278.195 18.7383 278.732 21.4435C279.27 24.1486 278.994 26.9525 277.939 29.5007C276.885 32.0489 275.099 34.2268 272.808 35.7592C270.517 37.2915 267.824 38.1094 265.068 38.1094H249.743C248.36 38.108 246.993 37.8123 245.733 37.2417C244.473 36.6711 243.348 35.8388 242.434 34.7999C241.52 33.7611 240.837 32.5396 240.431 31.2163C240.024 29.8931 239.904 28.4985 240.077 27.125C240.25 25.7516 240.713 24.4307 241.435 23.2501C242.158 22.0695 243.122 21.0561 244.266 20.2773C245.409 19.4985 246.705 18.972 248.067 18.7328C249.429 18.4936 250.827 18.5471 252.167 18.8899" stroke="white" strokeWidth="2" strokeLinecap="round" strokeLinejoin="round"/>
<path d="M264 26.1562C265.381 26.1562 266.5 25.0413 266.5 23.666C266.5 22.2907 265.381 21.1758 264 21.1758C262.619 21.1758 261.5 22.2907 261.5 23.666C261.5 25.0413 262.619 26.1562 264 26.1562Z" stroke="white" strokeWidth="2" strokeLinecap="round" strokeLinejoin="round"/>
<path d="M264 26.1562V29.1445" stroke="white" strokeWidth="2" strokeLinecap="round" strokeLinejoin="round"/>
<path d="M259 10.2188V5.73633C259 4.54752 259.579 3.40739 260.611 2.56678C261.642 1.72616 263.041 1.25391 264.5 1.25391C265.959 1.25391 267.358 1.72616 268.389 2.56678C269.421 3.40739 270 4.54752 270 5.73633V10.2188" stroke="white" strokeWidth="2" strokeLinecap="round" strokeLinejoin="round"/>
</svg>
